<svg width="23" height="23" viewBox="0 0 23 23" fill="none" xmlns="http://www.w3.org/2000/svg">
<g clip-path="url(#clip0_7_124)">
<path d="M13.6072 11.519L22.5629 2.56296C23.1457 1.98041 23.1457 1.03851 22.5629 0.455957C21.9804 -0.126595 21.0385 -0.126595 20.4559 0.455957L11.4999 9.41197L2.54413 0.455957C1.96131 -0.126595 1.01967 -0.126595 0.437119 0.455957C-0.145706 1.03851 -0.145706 1.98041 0.437119 2.56296L9.39287 11.519L0.437119 20.475C-0.145706 21.0575 -0.145706 21.9994 0.437119 22.582C0.72744 22.8726 1.10917 23.0186 1.49062 23.0186C1.87208 23.0186 2.25354 22.8726 2.54413 22.582L11.4999 13.626L20.4559 22.582C20.7465 22.8726 21.128 23.0186 21.5094 23.0186C21.8909 23.0186 22.2723 22.8726 22.5629 22.582C23.1457 21.9994 23.1457 21.0575 22.5629 20.475L13.6072 11.519Z" fill="#096CFF"/>
</g>
<defs>
<clipPath id="clip0_7_124">
<rect width="23" height="23" fill="white"/>
</clipPath>
</defs>
</svg>
