<svg width="133" height="42" viewBox="0 0 133 42" fill="none" xmlns="http://www.w3.org/2000/svg">
<path d="M48.4399 12.4H57.2599V14.632H51.1579V17.44H56.7199V19.6H51.1579V22.768H57.2599V25H48.4399V12.4ZM63.112 25.108C61.984 25.108 61.162 24.868 60.646 24.388C60.13 23.896 59.872 23.08 59.872 21.94V17.44H58.612V15.46H59.872V13.3H62.248V15.46H64.552V17.44H62.248V21.58C62.248 22.12 62.344 22.51 62.536 22.75C62.74 22.978 63.112 23.092 63.652 23.092C64.012 23.092 64.372 23.074 64.732 23.038V25.018C64.504 25.042 64.264 25.06 64.012 25.072C63.772 25.096 63.472 25.108 63.112 25.108ZM66.449 12.4H68.825V16.774C68.933 16.594 69.071 16.414 69.239 16.234C69.407 16.054 69.611 15.892 69.851 15.748C70.103 15.592 70.385 15.472 70.697 15.388C71.021 15.292 71.393 15.244 71.813 15.244C72.977 15.244 73.841 15.556 74.405 16.18C74.981 16.804 75.269 17.704 75.269 18.88V25H72.893V19.438C72.893 18.718 72.743 18.178 72.443 17.818C72.155 17.446 71.657 17.26 70.949 17.26C70.565 17.26 70.241 17.32 69.977 17.44C69.713 17.56 69.491 17.722 69.311 17.926C69.143 18.118 69.017 18.346 68.933 18.61C68.861 18.874 68.825 19.15 68.825 19.438V25H66.449V12.4ZM81.6675 25.216C81.0195 25.216 80.4015 25.12 79.8135 24.928C79.2375 24.724 78.7335 24.424 78.3015 24.028C77.8695 23.62 77.5275 23.11 77.2755 22.498C77.0235 21.874 76.8975 21.148 76.8975 20.32V19.96C76.8975 19.168 77.0175 18.478 77.2575 17.89C77.4975 17.302 77.8275 16.816 78.2475 16.432C78.6675 16.036 79.1535 15.742 79.7055 15.55C80.2575 15.346 80.8515 15.244 81.4875 15.244C82.9875 15.244 84.1275 15.64 84.9075 16.432C85.6875 17.224 86.0775 18.37 86.0775 19.87V20.878H79.3275C79.3395 21.298 79.4115 21.664 79.5435 21.976C79.6755 22.276 79.8495 22.522 80.0655 22.714C80.2815 22.906 80.5275 23.05 80.8035 23.146C81.0915 23.23 81.3795 23.272 81.6675 23.272C82.2795 23.272 82.7415 23.182 83.0535 23.002C83.3655 22.822 83.5875 22.558 83.7195 22.21H85.8975C85.7055 23.206 85.2315 23.956 84.4755 24.46C83.7195 24.964 82.7835 25.216 81.6675 25.216ZM81.5775 17.188C81.3015 17.188 81.0255 17.224 80.7495 17.296C80.4855 17.368 80.2515 17.482 80.0475 17.638C79.8435 17.794 79.6755 18.004 79.5435 18.268C79.4115 18.532 79.3395 18.85 79.3275 19.222H83.7735C83.7615 18.826 83.6955 18.496 83.5755 18.232C83.4675 17.968 83.3115 17.758 83.1075 17.602C82.9155 17.446 82.6875 17.338 82.4235 17.278C82.1595 17.218 81.8775 17.188 81.5775 17.188ZM87.7889 15.46H89.9849V16.864C90.0689 16.672 90.1889 16.48 90.3449 16.288C90.5009 16.084 90.6869 15.91 90.9029 15.766C91.1189 15.61 91.3529 15.484 91.6049 15.388C91.8689 15.292 92.1569 15.244 92.4689 15.244C92.6969 15.244 92.8889 15.256 93.0449 15.28C93.2129 15.304 93.3209 15.328 93.3689 15.352V17.458C93.2489 17.41 93.0929 17.368 92.9009 17.332C92.7209 17.284 92.4749 17.26 92.1629 17.26C91.8029 17.26 91.4969 17.32 91.2449 17.44C90.9929 17.56 90.7829 17.722 90.6149 17.926C90.4589 18.118 90.3449 18.346 90.2729 18.61C90.2009 18.874 90.1649 19.15 90.1649 19.438V25H87.7889V15.46ZM98.9468 25.216C98.2988 25.216 97.6808 25.12 97.0928 24.928C96.5168 24.724 96.0128 24.424 95.5808 24.028C95.1488 23.62 94.8068 23.11 94.5548 22.498C94.3028 21.874 94.1768 21.148 94.1768 20.32V19.96C94.1768 19.168 94.2968 18.478 94.5368 17.89C94.7768 17.302 95.1068 16.816 95.5268 16.432C95.9468 16.036 96.4328 15.742 96.9848 15.55C97.5368 15.346 98.1308 15.244 98.7668 15.244C100.267 15.244 101.407 15.64 102.187 16.432C102.967 17.224 103.357 18.37 103.357 19.87V20.878H96.6068C96.6188 21.298 96.6908 21.664 96.8228 21.976C96.9548 22.276 97.1288 22.522 97.3448 22.714C97.5608 22.906 97.8068 23.05 98.0828 23.146C98.3708 23.23 98.6588 23.272 98.9468 23.272C99.5588 23.272 100.021 23.182 100.333 23.002C100.645 22.822 100.867 22.558 100.999 22.21H103.177C102.985 23.206 102.511 23.956 101.755 24.46C100.999 24.964 100.063 25.216 98.9468 25.216ZM98.8568 17.188C98.5808 17.188 98.3048 17.224 98.0288 17.296C97.7648 17.368 97.5308 17.482 97.3268 17.638C97.1228 17.794 96.9548 18.004 96.8228 18.268C96.6908 18.532 96.6188 18.85 96.6068 19.222H101.053C101.041 18.826 100.975 18.496 100.855 18.232C100.747 17.968 100.591 17.758 100.387 17.602C100.195 17.446 99.9668 17.338 99.7028 17.278C99.4388 17.218 99.1568 17.188 98.8568 17.188ZM108.344 25.216C107.228 25.216 106.388 24.904 105.824 24.28C105.26 23.644 104.978 22.666 104.978 21.346V15.46H107.354V21.022C107.354 21.742 107.492 22.288 107.768 22.66C108.056 23.02 108.536 23.2 109.208 23.2C109.568 23.2 109.874 23.14 110.126 23.02C110.378 22.9 110.588 22.744 110.756 22.552C110.924 22.348 111.044 22.114 111.116 21.85C111.2 21.586 111.242 21.31 111.242 21.022V15.46H113.618V25H111.422V23.596C111.194 24.028 110.828 24.406 110.324 24.73C109.832 25.054 109.172 25.216 108.344 25.216ZM115.773 15.46H117.969V16.882C118.077 16.666 118.215 16.462 118.383 16.27C118.563 16.078 118.767 15.904 118.995 15.748C119.235 15.592 119.493 15.472 119.769 15.388C120.057 15.292 120.363 15.244 120.687 15.244C121.455 15.244 122.055 15.4 122.487 15.712C122.931 16.024 123.243 16.438 123.423 16.954C123.687 16.45 124.065 16.042 124.557 15.73C125.061 15.406 125.655 15.244 126.339 15.244C127.359 15.244 128.133 15.538 128.661 16.126C129.189 16.702 129.453 17.59 129.453 18.79V25H127.077V19.33C127.077 18.574 126.951 18.04 126.699 17.728C126.459 17.416 126.069 17.26 125.529 17.26C125.049 17.26 124.641 17.446 124.305 17.818C123.969 18.178 123.801 18.682 123.801 19.33V25H121.425V19.33C121.425 18.574 121.299 18.04 121.047 17.728C120.807 17.416 120.417 17.26 119.877 17.26C119.397 17.26 118.989 17.446 118.653 17.818C118.317 18.178 118.149 18.682 118.149 19.33V25H115.773V15.46Z" fill="white"/>
<path d="M19.4593 28.6157V15.8599L7 21.3176L19.4593 28.6157Z" fill="white"/>
<path d="M19.4593 28.6157V15.8599L7 21.3176L19.4593 28.6157Z" fill="#FFA409"/>
<path d="M19.4601 14.9839V0.00634766L7.40234 20.2654L19.4601 14.9839Z" fill="#FFA409"/>
<path d="M20.4609 0V14.9837L32.6881 20.3399L20.4609 0Z" fill="white"/>
<path d="M20.4609 0V14.9837L32.6881 20.3399L20.4609 0Z" fill="#FFA409"/>
<path d="M20.4609 15.8599V28.6161L32.9289 21.3212L20.4609 15.8599Z" fill="white"/>
<path d="M20.4609 15.8599V28.6161L32.9289 21.3212L20.4609 15.8599Z" fill="#FFA409"/>
<path d="M19.4575 41.4419V31.1822L7.08203 23.9365L19.4575 41.4419Z" fill="white"/>
<path d="M19.4575 41.4419V31.1822L7.08203 23.9365L19.4575 41.4419Z" fill="#FFA409"/>
<path d="M20.4609 41.4419L32.8364 23.9365L20.4609 31.1822V41.4419Z" fill="white"/>
<path d="M20.4609 41.4419L32.8364 23.9365L20.4609 31.1822V41.4419Z" fill="#FFA409"/>
</svg>
