<svg width="133" height="42" viewBox="0 0 133 42" fill="none" xmlns="http://www.w3.org/2000/svg">
<path d="M48.44 12.4H57.26V14.632H51.158V17.44H56.72V19.6H51.158V22.768H57.26V25H48.44V12.4ZM63.1121 25.108C61.9841 25.108 61.1621 24.868 60.6461 24.388C60.1301 23.896 59.8721 23.08 59.8721 21.94V17.44H58.6121V15.46H59.8721V13.3H62.2481V15.46H64.5521V17.44H62.2481V21.58C62.2481 22.12 62.3441 22.51 62.5361 22.75C62.7401 22.978 63.1121 23.092 63.6521 23.092C64.0121 23.092 64.3721 23.074 64.7321 23.038V25.018C64.5041 25.042 64.2641 25.06 64.0121 25.072C63.7721 25.096 63.4721 25.108 63.1121 25.108ZM66.4491 12.4H68.8251V16.774C68.9331 16.594 69.0711 16.414 69.2391 16.234C69.4071 16.054 69.6111 15.892 69.8511 15.748C70.1031 15.592 70.3851 15.472 70.6971 15.388C71.0211 15.292 71.3931 15.244 71.8131 15.244C72.9771 15.244 73.8411 15.556 74.4051 16.18C74.9811 16.804 75.2691 17.704 75.2691 18.88V25H72.8931V19.438C72.8931 18.718 72.7431 18.178 72.4431 17.818C72.1551 17.446 71.6571 17.26 70.9491 17.26C70.5651 17.26 70.2411 17.32 69.9771 17.44C69.7131 17.56 69.4911 17.722 69.3111 17.926C69.1431 18.118 69.0171 18.346 68.9331 18.61C68.8611 18.874 68.8251 19.15 68.8251 19.438V25H66.4491V12.4ZM81.6676 25.216C81.0196 25.216 80.4016 25.12 79.8136 24.928C79.2376 24.724 78.7336 24.424 78.3016 24.028C77.8696 23.62 77.5276 23.11 77.2756 22.498C77.0236 21.874 76.8976 21.148 76.8976 20.32V19.96C76.8976 19.168 77.0176 18.478 77.2576 17.89C77.4976 17.302 77.8276 16.816 78.2476 16.432C78.6676 16.036 79.1536 15.742 79.7056 15.55C80.2576 15.346 80.8516 15.244 81.4876 15.244C82.9876 15.244 84.1276 15.64 84.9076 16.432C85.6876 17.224 86.0776 18.37 86.0776 19.87V20.878H79.3276C79.3396 21.298 79.4116 21.664 79.5436 21.976C79.6756 22.276 79.8496 22.522 80.0656 22.714C80.2816 22.906 80.5276 23.05 80.8036 23.146C81.0916 23.23 81.3796 23.272 81.6676 23.272C82.2796 23.272 82.7416 23.182 83.0536 23.002C83.3656 22.822 83.5876 22.558 83.7196 22.21H85.8976C85.7056 23.206 85.2316 23.956 84.4756 24.46C83.7196 24.964 82.7836 25.216 81.6676 25.216ZM81.5776 17.188C81.3016 17.188 81.0256 17.224 80.7496 17.296C80.4856 17.368 80.2516 17.482 80.0476 17.638C79.8436 17.794 79.6756 18.004 79.5436 18.268C79.4116 18.532 79.3396 18.85 79.3276 19.222H83.7736C83.7616 18.826 83.6956 18.496 83.5756 18.232C83.4676 17.968 83.3116 17.758 83.1076 17.602C82.9156 17.446 82.6876 17.338 82.4236 17.278C82.1596 17.218 81.8776 17.188 81.5776 17.188ZM87.789 15.46H89.985V16.864C90.069 16.672 90.189 16.48 90.345 16.288C90.501 16.084 90.687 15.91 90.903 15.766C91.119 15.61 91.353 15.484 91.605 15.388C91.869 15.292 92.157 15.244 92.469 15.244C92.697 15.244 92.889 15.256 93.045 15.28C93.213 15.304 93.321 15.328 93.369 15.352V17.458C93.249 17.41 93.093 17.368 92.901 17.332C92.721 17.284 92.475 17.26 92.163 17.26C91.803 17.26 91.497 17.32 91.245 17.44C90.993 17.56 90.783 17.722 90.615 17.926C90.459 18.118 90.345 18.346 90.273 18.61C90.201 18.874 90.165 19.15 90.165 19.438V25H87.789V15.46ZM98.9469 25.216C98.2989 25.216 97.6809 25.12 97.0929 24.928C96.5169 24.724 96.0129 24.424 95.5809 24.028C95.1489 23.62 94.8069 23.11 94.5549 22.498C94.3029 21.874 94.1769 21.148 94.1769 20.32V19.96C94.1769 19.168 94.2969 18.478 94.5369 17.89C94.7769 17.302 95.1069 16.816 95.5269 16.432C95.9469 16.036 96.4329 15.742 96.9849 15.55C97.5369 15.346 98.1309 15.244 98.7669 15.244C100.267 15.244 101.407 15.64 102.187 16.432C102.967 17.224 103.357 18.37 103.357 19.87V20.878H96.6069C96.6189 21.298 96.6909 21.664 96.8229 21.976C96.9549 22.276 97.1289 22.522 97.3449 22.714C97.5609 22.906 97.8069 23.05 98.0829 23.146C98.3709 23.23 98.6589 23.272 98.9469 23.272C99.5589 23.272 100.021 23.182 100.333 23.002C100.645 22.822 100.867 22.558 100.999 22.21H103.177C102.985 23.206 102.511 23.956 101.755 24.46C100.999 24.964 100.063 25.216 98.9469 25.216ZM98.8569 17.188C98.5809 17.188 98.3049 17.224 98.0289 17.296C97.7649 17.368 97.5309 17.482 97.3269 17.638C97.1229 17.794 96.9549 18.004 96.8229 18.268C96.6909 18.532 96.6189 18.85 96.6069 19.222H101.053C101.041 18.826 100.975 18.496 100.855 18.232C100.747 17.968 100.591 17.758 100.387 17.602C100.195 17.446 99.9669 17.338 99.7029 17.278C99.4389 17.218 99.1569 17.188 98.8569 17.188ZM108.344 25.216C107.228 25.216 106.388 24.904 105.824 24.28C105.26 23.644 104.978 22.666 104.978 21.346V15.46H107.354V21.022C107.354 21.742 107.492 22.288 107.768 22.66C108.056 23.02 108.536 23.2 109.208 23.2C109.568 23.2 109.874 23.14 110.126 23.02C110.378 22.9 110.588 22.744 110.756 22.552C110.924 22.348 111.044 22.114 111.116 21.85C111.2 21.586 111.242 21.31 111.242 21.022V15.46H113.618V25H111.422V23.596C111.194 24.028 110.828 24.406 110.324 24.73C109.832 25.054 109.172 25.216 108.344 25.216ZM115.773 15.46H117.969V16.882C118.077 16.666 118.215 16.462 118.383 16.27C118.563 16.078 118.767 15.904 118.995 15.748C119.235 15.592 119.493 15.472 119.769 15.388C120.057 15.292 120.363 15.244 120.687 15.244C121.455 15.244 122.055 15.4 122.487 15.712C122.931 16.024 123.243 16.438 123.423 16.954C123.687 16.45 124.065 16.042 124.557 15.73C125.061 15.406 125.655 15.244 126.339 15.244C127.359 15.244 128.133 15.538 128.661 16.126C129.189 16.702 129.453 17.59 129.453 18.79V25H127.077V19.33C127.077 18.574 126.951 18.04 126.699 17.728C126.459 17.416 126.069 17.26 125.529 17.26C125.049 17.26 124.641 17.446 124.305 17.818C123.969 18.178 123.801 18.682 123.801 19.33V25H121.425V19.33C121.425 18.574 121.299 18.04 121.047 17.728C120.807 17.416 120.417 17.26 119.877 17.26C119.397 17.26 118.989 17.446 118.653 17.818C118.317 18.178 118.149 18.682 118.149 19.33V25H115.773V15.46Z" fill="#363B40"/>
<path d="M19.4593 28.6157V15.8599L7 21.3176L19.4593 28.6157Z" fill="white"/>
<path d="M19.4593 28.6157V15.8599L7 21.3176L19.4593 28.6157Z" fill="#FFA409"/>
<path d="M19.4601 14.9839V0.00634766L7.40234 20.2654L19.4601 14.9839Z" fill="#FFA409"/>
<path d="M20.4609 0V14.9837L32.6881 20.3399L20.4609 0Z" fill="white"/>
<path d="M20.4609 0V14.9837L32.6881 20.3399L20.4609 0Z" fill="#FFA409"/>
<path d="M20.4609 15.8599V28.6161L32.9289 21.3212L20.4609 15.8599Z" fill="white"/>
<path d="M20.4609 15.8599V28.6161L32.9289 21.3212L20.4609 15.8599Z" fill="#FFA409"/>
<path d="M19.4575 41.4419V31.1822L7.08203 23.9365L19.4575 41.4419Z" fill="white"/>
<path d="M19.4575 41.4419V31.1822L7.08203 23.9365L19.4575 41.4419Z" fill="#FFA409"/>
<path d="M20.4609 41.4419L32.8364 23.9365L20.4609 31.1822V41.4419Z" fill="white"/>
<path d="M20.4609 41.4419L32.8364 23.9365L20.4609 31.1822V41.4419Z" fill="#FFA409"/>
</svg>
