<svg width="133" height="41" viewBox="0 0 133 41" fill="none" xmlns="http://www.w3.org/2000/svg">
<path d="M48.44 12.4H53.84C55.256 12.4 56.3 12.7 56.972 13.3C57.644 13.888 57.98 14.71 57.98 15.766C57.98 16.414 57.818 16.972 57.494 17.44C57.182 17.896 56.75 18.226 56.198 18.43C56.918 18.598 57.482 18.94 57.89 19.456C58.31 19.96 58.52 20.62 58.52 21.436C58.52 21.976 58.436 22.468 58.268 22.912C58.1 23.344 57.836 23.716 57.476 24.028C57.128 24.34 56.672 24.58 56.108 24.748C55.544 24.916 54.866 25 54.074 25H48.44V12.4ZM53.588 22.948C54.428 22.948 55.01 22.804 55.334 22.516C55.658 22.228 55.82 21.802 55.82 21.238C55.82 20.674 55.658 20.236 55.334 19.924C55.01 19.6 54.422 19.438 53.57 19.438H51.14V22.948H53.588ZM53.3 17.602C54.032 17.602 54.542 17.458 54.83 17.17C55.13 16.882 55.28 16.492 55.28 16C55.28 15.496 55.136 15.112 54.848 14.848C54.56 14.584 54.05 14.452 53.318 14.452H51.14V17.602H53.3ZM60.4944 15.46H62.8704V25H60.4944V15.46ZM61.6824 14.56C61.2624 14.56 60.9144 14.428 60.6384 14.164C60.3744 13.888 60.2424 13.54 60.2424 13.12C60.2424 12.7 60.3744 12.358 60.6384 12.094C60.9144 11.818 61.2624 11.68 61.6824 11.68C62.1024 11.68 62.4444 11.818 62.7084 12.094C62.9844 12.358 63.1224 12.7 63.1224 13.12C63.1224 13.54 62.9844 13.888 62.7084 14.164C62.4444 14.428 62.1024 14.56 61.6824 14.56ZM69.0887 25.108C67.9607 25.108 67.1387 24.868 66.6227 24.388C66.1067 23.896 65.8487 23.08 65.8487 21.94V17.44H64.5887V15.46H65.8487V13.3H68.2247V15.46H70.5287V17.44H68.2247V21.58C68.2247 22.12 68.3207 22.51 68.5127 22.75C68.7167 22.978 69.0887 23.092 69.6287 23.092C69.9887 23.092 70.3487 23.074 70.7087 23.038V25.018C70.4807 25.042 70.2407 25.06 69.9887 25.072C69.7487 25.096 69.4487 25.108 69.0887 25.108ZM76.5678 25.216C75.9078 25.216 75.2898 25.114 74.7138 24.91C74.1498 24.706 73.6578 24.4 73.2378 23.992C72.8178 23.584 72.4878 23.074 72.2478 22.462C72.0078 21.85 71.8878 21.136 71.8878 20.32V19.96C71.8878 19.192 72.0138 18.514 72.2658 17.926C72.5178 17.338 72.8538 16.846 73.2738 16.45C73.7058 16.054 74.2038 15.754 74.7678 15.55C75.3318 15.346 75.9318 15.244 76.5678 15.244C77.2398 15.244 77.8338 15.334 78.3498 15.514C78.8778 15.694 79.3218 15.94 79.6818 16.252C80.0418 16.564 80.3238 16.93 80.5278 17.35C80.7318 17.77 80.8518 18.22 80.8878 18.7H78.4758C78.3798 18.256 78.1818 17.908 77.8818 17.656C77.5938 17.392 77.1558 17.26 76.5678 17.26C76.2558 17.26 75.9618 17.314 75.6858 17.422C75.4218 17.53 75.1818 17.698 74.9658 17.926C74.7618 18.142 74.5998 18.418 74.4798 18.754C74.3598 19.09 74.2998 19.492 74.2998 19.96V20.32C74.2998 20.824 74.3538 21.262 74.4618 21.634C74.5818 21.994 74.7438 22.294 74.9478 22.534C75.1518 22.762 75.3918 22.93 75.6678 23.038C75.9438 23.146 76.2438 23.2 76.5678 23.2C77.0358 23.2 77.4378 23.08 77.7738 22.84C78.1218 22.588 78.3558 22.228 78.4758 21.76H80.8878C80.8278 22.288 80.6778 22.768 80.4378 23.2C80.2098 23.62 79.9038 23.98 79.5198 24.28C79.1478 24.58 78.7098 24.814 78.2058 24.982C77.7018 25.138 77.1558 25.216 76.5678 25.216ZM86.8355 25.216C86.1875 25.216 85.5695 25.12 84.9815 24.928C84.4055 24.724 83.9015 24.418 83.4695 24.01C83.0375 23.602 82.6955 23.092 82.4435 22.48C82.1915 21.868 82.0655 21.148 82.0655 20.32V19.96C82.0655 19.18 82.1915 18.496 82.4435 17.908C82.6955 17.32 83.0375 16.828 83.4695 16.432C83.9015 16.036 84.4055 15.742 84.9815 15.55C85.5695 15.346 86.1875 15.244 86.8355 15.244C87.4835 15.244 88.0955 15.346 88.6715 15.55C89.2475 15.742 89.7515 16.036 90.1835 16.432C90.6275 16.828 90.9755 17.32 91.2275 17.908C91.4795 18.496 91.6055 19.18 91.6055 19.96V20.32C91.6055 21.136 91.4795 21.85 91.2275 22.462C90.9755 23.074 90.6275 23.584 90.1835 23.992C89.7515 24.4 89.2475 24.706 88.6715 24.91C88.0955 25.114 87.4835 25.216 86.8355 25.216ZM86.8355 23.2C87.5075 23.2 88.0655 22.96 88.5095 22.48C88.9655 22 89.1935 21.28 89.1935 20.32V19.96C89.1935 19.084 88.9655 18.418 88.5095 17.962C88.0655 17.494 87.5075 17.26 86.8355 17.26C86.1515 17.26 85.5875 17.494 85.1435 17.962C84.6995 18.418 84.4775 19.084 84.4775 19.96V20.32C84.4775 21.292 84.6995 22.018 85.1435 22.498C85.5875 22.966 86.1515 23.2 86.8355 23.2ZM93.4885 15.46H95.8645V25H93.4885V15.46ZM94.6765 14.56C94.2565 14.56 93.9085 14.428 93.6325 14.164C93.3685 13.888 93.2365 13.54 93.2365 13.12C93.2365 12.7 93.3685 12.358 93.6325 12.094C93.9085 11.818 94.2565 11.68 94.6765 11.68C95.0965 11.68 95.4385 11.818 95.7025 12.094C95.9785 12.358 96.1165 12.7 96.1165 13.12C96.1165 13.54 95.9785 13.888 95.7025 14.164C95.4385 14.428 95.0965 14.56 94.6765 14.56ZM98.2128 15.46H100.409V16.864C100.637 16.432 101.003 16.054 101.507 15.73C102.023 15.406 102.713 15.244 103.577 15.244C104.741 15.244 105.605 15.556 106.169 16.18C106.745 16.804 107.033 17.704 107.033 18.88V25H104.657V19.42C104.657 18.7 104.507 18.16 104.207 17.8C103.919 17.44 103.421 17.26 102.713 17.26C102.329 17.26 102.005 17.32 101.741 17.44C101.477 17.56 101.255 17.722 101.075 17.926C100.907 18.118 100.781 18.346 100.697 18.61C100.625 18.862 100.589 19.132 100.589 19.42V25H98.2128V15.46Z" fill="#363B40"/>
<path d="M28.5457 19.1147C30.5607 17.9789 31.6498 15.7052 31.2743 13.4243C30.8079 9.90295 26.6102 8.57356 23.2986 8.29379V3H20.0336V8.24718H17.8415V3H14.5766V8.24718H8V11.6287H10.4487C11.5448 11.6287 12.0812 11.9552 12.0812 12.8414V27.3703C12.0812 28.5829 11.4748 28.9562 10.8218 28.9562H8.32649V32.4076H14.6698V37.7715H17.958V32.4076H20.1501V37.7715H23.3452V32.4076H24.0448C30.7612 32.4076 33 29.1194 33 24.6418C32.9463 22.0018 31.1157 19.7303 28.5457 19.1147ZM17.8414 11.8386H20.1734C21.8059 11.8386 25.0242 12.1185 25.0242 14.777C25.1362 16.5121 23.8792 18.0327 22.1557 18.2518H17.8414C17.8414 18.2518 17.8414 11.8386 17.8414 11.8386ZM21.4561 28.6295V28.6062H17.8414V21.61H22.0392C23.0187 21.61 26.7033 21.9364 26.7033 24.5484C26.7033 27.1603 24.9543 28.6295 21.4561 28.6295Z" fill="#FFA409"/>
</svg>
