<svg width="133" height="42" viewBox="0 0 133 42" fill="none" xmlns="http://www.w3.org/2000/svg">
<path d="M48.44 12.3999H57.26V14.6319H51.158V17.4399H56.72V19.5999H51.158V22.7679H57.26V24.9999H48.44V12.3999ZM63.1121 25.1079C61.9841 25.1079 61.1621 24.8679 60.6461 24.3879C60.1301 23.8959 59.8721 23.0799 59.8721 21.9399V17.4399H58.6121V15.4599H59.8721V13.2999H62.2481V15.4599H64.5521V17.4399H62.2481V21.5799C62.2481 22.1199 62.3441 22.5099 62.5361 22.7499C62.7401 22.9779 63.1121 23.0919 63.6521 23.0919C64.0121 23.0919 64.3721 23.0739 64.7321 23.0379V25.0179C64.5041 25.0419 64.2641 25.0599 64.0121 25.0719C63.7721 25.0959 63.4721 25.1079 63.1121 25.1079ZM66.4491 12.3999H68.8251V16.7739C68.9331 16.5939 69.0711 16.4139 69.2391 16.2339C69.4071 16.0539 69.6111 15.8919 69.8511 15.7479C70.1031 15.5919 70.3851 15.4719 70.6971 15.3879C71.0211 15.2919 71.3931 15.2439 71.8131 15.2439C72.9771 15.2439 73.8411 15.5559 74.4051 16.1799C74.9811 16.8039 75.2691 17.7039 75.2691 18.8799V24.9999H72.8931V19.4379C72.8931 18.7179 72.7431 18.1779 72.4431 17.8179C72.1551 17.4459 71.6571 17.2599 70.9491 17.2599C70.5651 17.2599 70.2411 17.3199 69.9771 17.4399C69.7131 17.5599 69.4911 17.7219 69.3111 17.9259C69.1431 18.1179 69.0171 18.3459 68.9331 18.6099C68.8611 18.8739 68.8251 19.1499 68.8251 19.4379V24.9999H66.4491V12.3999ZM81.6676 25.2159C81.0196 25.2159 80.4016 25.1199 79.8136 24.9279C79.2376 24.7239 78.7336 24.4239 78.3016 24.0279C77.8696 23.6199 77.5276 23.1099 77.2756 22.4979C77.0236 21.8739 76.8976 21.1479 76.8976 20.3199V19.9599C76.8976 19.1679 77.0176 18.4779 77.2576 17.8899C77.4976 17.3019 77.8276 16.8159 78.2476 16.4319C78.6676 16.0359 79.1536 15.7419 79.7056 15.5499C80.2576 15.3459 80.8516 15.2439 81.4876 15.2439C82.9876 15.2439 84.1276 15.6399 84.9076 16.4319C85.6876 17.2239 86.0776 18.3699 86.0776 19.8699V20.8779H79.3276C79.3396 21.2979 79.4116 21.6639 79.5436 21.9759C79.6756 22.2759 79.8496 22.5219 80.0656 22.7139C80.2816 22.9059 80.5276 23.0499 80.8036 23.1459C81.0916 23.2299 81.3796 23.2719 81.6676 23.2719C82.2796 23.2719 82.7416 23.1819 83.0536 23.0019C83.3656 22.8219 83.5876 22.5579 83.7196 22.2099H85.8976C85.7056 23.2059 85.2316 23.9559 84.4756 24.4599C83.7196 24.9639 82.7836 25.2159 81.6676 25.2159ZM81.5776 17.1879C81.3016 17.1879 81.0256 17.2239 80.7496 17.2959C80.4856 17.3679 80.2516 17.4819 80.0476 17.6379C79.8436 17.7939 79.6756 18.0039 79.5436 18.2679C79.4116 18.5319 79.3396 18.8499 79.3276 19.2219H83.7736C83.7616 18.8259 83.6956 18.4959 83.5756 18.2319C83.4676 17.9679 83.3116 17.7579 83.1076 17.6019C82.9156 17.4459 82.6876 17.3379 82.4236 17.2779C82.1596 17.2179 81.8776 17.1879 81.5776 17.1879ZM87.789 15.4599H89.985V16.8639C90.069 16.6719 90.189 16.4799 90.345 16.2879C90.501 16.0839 90.687 15.9099 90.903 15.7659C91.119 15.6099 91.353 15.4839 91.605 15.3879C91.869 15.2919 92.157 15.2439 92.469 15.2439C92.697 15.2439 92.889 15.2559 93.045 15.2799C93.213 15.3039 93.321 15.3279 93.369 15.3519V17.4579C93.249 17.4099 93.093 17.3679 92.901 17.3319C92.721 17.2839 92.475 17.2599 92.163 17.2599C91.803 17.2599 91.497 17.3199 91.245 17.4399C90.993 17.5599 90.783 17.7219 90.615 17.9259C90.459 18.1179 90.345 18.3459 90.273 18.6099C90.201 18.8739 90.165 19.1499 90.165 19.4379V24.9999H87.789V15.4599ZM98.9469 25.2159C98.2989 25.2159 97.6809 25.1199 97.0929 24.9279C96.5169 24.7239 96.0129 24.4239 95.5809 24.0279C95.1489 23.6199 94.8069 23.1099 94.5549 22.4979C94.3029 21.8739 94.1769 21.1479 94.1769 20.3199V19.9599C94.1769 19.1679 94.2969 18.4779 94.5369 17.8899C94.7769 17.3019 95.1069 16.8159 95.5269 16.4319C95.9469 16.0359 96.4329 15.7419 96.9849 15.5499C97.5369 15.3459 98.1309 15.2439 98.7669 15.2439C100.267 15.2439 101.407 15.6399 102.187 16.4319C102.967 17.2239 103.357 18.3699 103.357 19.8699V20.8779H96.6069C96.6189 21.2979 96.6909 21.6639 96.8229 21.9759C96.9549 22.2759 97.1289 22.5219 97.3449 22.7139C97.5609 22.9059 97.8069 23.0499 98.0829 23.1459C98.3709 23.2299 98.6589 23.2719 98.9469 23.2719C99.5589 23.2719 100.021 23.1819 100.333 23.0019C100.645 22.8219 100.867 22.5579 100.999 22.2099H103.177C102.985 23.2059 102.511 23.9559 101.755 24.4599C100.999 24.9639 100.063 25.2159 98.9469 25.2159ZM98.8569 17.1879C98.5809 17.1879 98.3049 17.2239 98.0289 17.2959C97.7649 17.3679 97.5309 17.4819 97.3269 17.6379C97.1229 17.7939 96.9549 18.0039 96.8229 18.2679C96.6909 18.5319 96.6189 18.8499 96.6069 19.2219H101.053C101.041 18.8259 100.975 18.4959 100.855 18.2319C100.747 17.9679 100.591 17.7579 100.387 17.6019C100.195 17.4459 99.9669 17.3379 99.7029 17.2779C99.4389 17.2179 99.1569 17.1879 98.8569 17.1879ZM108.344 25.2159C107.228 25.2159 106.388 24.9039 105.824 24.2799C105.26 23.6439 104.978 22.6659 104.978 21.3459V15.4599H107.354V21.0219C107.354 21.7419 107.492 22.2879 107.768 22.6599C108.056 23.0199 108.536 23.1999 109.208 23.1999C109.568 23.1999 109.874 23.1399 110.126 23.0199C110.378 22.8999 110.588 22.7439 110.756 22.5519C110.924 22.3479 111.044 22.1139 111.116 21.8499C111.2 21.5859 111.242 21.3099 111.242 21.0219V15.4599H113.618V24.9999H111.422V23.5959C111.194 24.0279 110.828 24.4059 110.324 24.7299C109.832 25.0539 109.172 25.2159 108.344 25.2159ZM115.773 15.4599H117.969V16.8819C118.077 16.6659 118.215 16.4619 118.383 16.2699C118.563 16.0779 118.767 15.9039 118.995 15.7479C119.235 15.5919 119.493 15.4719 119.769 15.3879C120.057 15.2919 120.363 15.2439 120.687 15.2439C121.455 15.2439 122.055 15.3999 122.487 15.7119C122.931 16.0239 123.243 16.4379 123.423 16.9539C123.687 16.4499 124.065 16.0419 124.557 15.7299C125.061 15.4059 125.655 15.2439 126.339 15.2439C127.359 15.2439 128.133 15.5379 128.661 16.1259C129.189 16.7019 129.453 17.5899 129.453 18.7899V24.9999H127.077V19.3299C127.077 18.5739 126.951 18.0399 126.699 17.7279C126.459 17.4159 126.069 17.2599 125.529 17.2599C125.049 17.2599 124.641 17.4459 124.305 17.8179C123.969 18.1779 123.801 18.6819 123.801 19.3299V24.9999H121.425V19.3299C121.425 18.5739 121.299 18.0399 121.047 17.7279C120.807 17.4159 120.417 17.2599 119.877 17.2599C119.397 17.2599 118.989 17.4459 118.653 17.8179C118.317 18.1779 118.149 18.6819 118.149 19.3299V24.9999H115.773V15.4599Z" fill="white"/>
<path d="M19.4593 28.6157V15.8599L7 21.3176L19.4593 28.6157Z" fill="white"/>
<path d="M19.4593 28.6157V15.8599L7 21.3176L19.4593 28.6157Z" fill="#096CFF"/>
<path d="M19.4601 14.9839V0.00634766L7.40234 20.2654L19.4601 14.9839Z" fill="#096CFF"/>
<path d="M20.4609 0V14.9837L32.6881 20.3399L20.4609 0Z" fill="white"/>
<path d="M20.4609 0V14.9837L32.6881 20.3399L20.4609 0Z" fill="#096CFF"/>
<path d="M20.4609 15.8599V28.6161L32.9289 21.3212L20.4609 15.8599Z" fill="white"/>
<path d="M20.4609 15.8599V28.6161L32.9289 21.3212L20.4609 15.8599Z" fill="#096CFF"/>
<path d="M19.4575 41.4419V31.1822L7.08203 23.9365L19.4575 41.4419Z" fill="white"/>
<path d="M19.4575 41.4419V31.1822L7.08203 23.9365L19.4575 41.4419Z" fill="#096CFF"/>
<path d="M20.4609 41.4419L32.8364 23.9365L20.4609 31.1822V41.4419Z" fill="white"/>
<path d="M20.4609 41.4419L32.8364 23.9365L20.4609 31.1822V41.4419Z" fill="#096CFF"/>
</svg>
