<svg width="133" height="41" viewBox="0 0 133 41" fill="none" xmlns="http://www.w3.org/2000/svg">
<path d="M48.44 12.4002H53.84C55.256 12.4002 56.3 12.7002 56.972 13.3002C57.644 13.8882 57.98 14.7102 57.98 15.7662C57.98 16.4142 57.818 16.9722 57.494 17.4402C57.182 17.8962 56.75 18.2262 56.198 18.4302C56.918 18.5982 57.482 18.9402 57.89 19.4562C58.31 19.9602 58.52 20.6202 58.52 21.4362C58.52 21.9762 58.436 22.4682 58.268 22.9122C58.1 23.3442 57.836 23.7162 57.476 24.0282C57.128 24.3402 56.672 24.5802 56.108 24.7482C55.544 24.9162 54.866 25.0002 54.074 25.0002H48.44V12.4002ZM53.588 22.9482C54.428 22.9482 55.01 22.8042 55.334 22.5162C55.658 22.2282 55.82 21.8022 55.82 21.2382C55.82 20.6742 55.658 20.2362 55.334 19.9242C55.01 19.6002 54.422 19.4382 53.57 19.4382H51.14V22.9482H53.588ZM53.3 17.6022C54.032 17.6022 54.542 17.4582 54.83 17.1702C55.13 16.8822 55.28 16.4922 55.28 16.0002C55.28 15.4962 55.136 15.1122 54.848 14.8482C54.56 14.5842 54.05 14.4522 53.318 14.4522H51.14V17.6022H53.3ZM60.4944 15.4602H62.8704V25.0002H60.4944V15.4602ZM61.6824 14.5602C61.2624 14.5602 60.9144 14.4282 60.6384 14.1642C60.3744 13.8882 60.2424 13.5402 60.2424 13.1202C60.2424 12.7002 60.3744 12.3582 60.6384 12.0942C60.9144 11.8182 61.2624 11.6802 61.6824 11.6802C62.1024 11.6802 62.4444 11.8182 62.7084 12.0942C62.9844 12.3582 63.1224 12.7002 63.1224 13.1202C63.1224 13.5402 62.9844 13.8882 62.7084 14.1642C62.4444 14.4282 62.1024 14.5602 61.6824 14.5602ZM69.0887 25.1082C67.9607 25.1082 67.1387 24.8682 66.6227 24.3882C66.1067 23.8962 65.8487 23.0802 65.8487 21.9402V17.4402H64.5887V15.4602H65.8487V13.3002H68.2247V15.4602H70.5287V17.4402H68.2247V21.5802C68.2247 22.1202 68.3207 22.5102 68.5127 22.7502C68.7167 22.9782 69.0887 23.0922 69.6287 23.0922C69.9887 23.0922 70.3487 23.0742 70.7087 23.0382V25.0182C70.4807 25.0422 70.2407 25.0602 69.9887 25.0722C69.7487 25.0962 69.4487 25.1082 69.0887 25.1082ZM76.5678 25.2162C75.9078 25.2162 75.2898 25.1142 74.7138 24.9102C74.1498 24.7062 73.6578 24.4002 73.2378 23.9922C72.8178 23.5842 72.4878 23.0742 72.2478 22.4622C72.0078 21.8502 71.8878 21.1362 71.8878 20.3202V19.9602C71.8878 19.1922 72.0138 18.5142 72.2658 17.9262C72.5178 17.3382 72.8538 16.8462 73.2738 16.4502C73.7058 16.0542 74.2038 15.7542 74.7678 15.5502C75.3318 15.3462 75.9318 15.2442 76.5678 15.2442C77.2398 15.2442 77.8338 15.3342 78.3498 15.5142C78.8778 15.6942 79.3218 15.9402 79.6818 16.2522C80.0418 16.5642 80.3238 16.9302 80.5278 17.3502C80.7318 17.7702 80.8518 18.2202 80.8878 18.7002H78.4758C78.3798 18.2562 78.1818 17.9082 77.8818 17.6562C77.5938 17.3922 77.1558 17.2602 76.5678 17.2602C76.2558 17.2602 75.9618 17.3142 75.6858 17.4222C75.4218 17.5302 75.1818 17.6982 74.9658 17.9262C74.7618 18.1422 74.5998 18.4182 74.4798 18.7542C74.3598 19.0902 74.2998 19.4922 74.2998 19.9602V20.3202C74.2998 20.8242 74.3538 21.2622 74.4618 21.6342C74.5818 21.9942 74.7438 22.2942 74.9478 22.5342C75.1518 22.7622 75.3918 22.9302 75.6678 23.0382C75.9438 23.1462 76.2438 23.2002 76.5678 23.2002C77.0358 23.2002 77.4378 23.0802 77.7738 22.8402C78.1218 22.5882 78.3558 22.2282 78.4758 21.7602H80.8878C80.8278 22.2882 80.6778 22.7682 80.4378 23.2002C80.2098 23.6202 79.9038 23.9802 79.5198 24.2802C79.1478 24.5802 78.7098 24.8142 78.2058 24.9822C77.7018 25.1382 77.1558 25.2162 76.5678 25.2162ZM86.8355 25.2162C86.1875 25.2162 85.5695 25.1202 84.9815 24.9282C84.4055 24.7242 83.9015 24.4182 83.4695 24.0102C83.0375 23.6022 82.6955 23.0922 82.4435 22.4802C82.1915 21.8682 82.0655 21.1482 82.0655 20.3202V19.9602C82.0655 19.1802 82.1915 18.4962 82.4435 17.9082C82.6955 17.3202 83.0375 16.8282 83.4695 16.4322C83.9015 16.0362 84.4055 15.7422 84.9815 15.5502C85.5695 15.3462 86.1875 15.2442 86.8355 15.2442C87.4835 15.2442 88.0955 15.3462 88.6715 15.5502C89.2475 15.7422 89.7515 16.0362 90.1835 16.4322C90.6275 16.8282 90.9755 17.3202 91.2275 17.9082C91.4795 18.4962 91.6055 19.1802 91.6055 19.9602V20.3202C91.6055 21.1362 91.4795 21.8502 91.2275 22.4622C90.9755 23.0742 90.6275 23.5842 90.1835 23.9922C89.7515 24.4002 89.2475 24.7062 88.6715 24.9102C88.0955 25.1142 87.4835 25.2162 86.8355 25.2162ZM86.8355 23.2002C87.5075 23.2002 88.0655 22.9602 88.5095 22.4802C88.9655 22.0002 89.1935 21.2802 89.1935 20.3202V19.9602C89.1935 19.0842 88.9655 18.4182 88.5095 17.9622C88.0655 17.4942 87.5075 17.2602 86.8355 17.2602C86.1515 17.2602 85.5875 17.4942 85.1435 17.9622C84.6995 18.4182 84.4775 19.0842 84.4775 19.9602V20.3202C84.4775 21.2922 84.6995 22.0182 85.1435 22.4982C85.5875 22.9662 86.1515 23.2002 86.8355 23.2002ZM93.4885 15.4602H95.8645V25.0002H93.4885V15.4602ZM94.6765 14.5602C94.2565 14.5602 93.9085 14.4282 93.6325 14.1642C93.3685 13.8882 93.2365 13.5402 93.2365 13.1202C93.2365 12.7002 93.3685 12.3582 93.6325 12.0942C93.9085 11.8182 94.2565 11.6802 94.6765 11.6802C95.0965 11.6802 95.4385 11.8182 95.7025 12.0942C95.9785 12.3582 96.1165 12.7002 96.1165 13.1202C96.1165 13.5402 95.9785 13.8882 95.7025 14.1642C95.4385 14.4282 95.0965 14.5602 94.6765 14.5602ZM98.2128 15.4602H100.409V16.8642C100.637 16.4322 101.003 16.0542 101.507 15.7302C102.023 15.4062 102.713 15.2442 103.577 15.2442C104.741 15.2442 105.605 15.5562 106.169 16.1802C106.745 16.8042 107.033 17.7042 107.033 18.8802V25.0002H104.657V19.4202C104.657 18.7002 104.507 18.1602 104.207 17.8002C103.919 17.4402 103.421 17.2602 102.713 17.2602C102.329 17.2602 102.005 17.3202 101.741 17.4402C101.477 17.5602 101.255 17.7222 101.075 17.9262C100.907 18.1182 100.781 18.3462 100.697 18.6102C100.625 18.8622 100.589 19.1322 100.589 19.4202V25.0002H98.2128V15.4602Z" fill="white"/>
<path d="M28.5457 19.1147C30.5607 17.9789 31.6498 15.7052 31.2743 13.4243C30.8079 9.90295 26.6102 8.57356 23.2986 8.29379V3H20.0336V8.24718H17.8415V3H14.5766V8.24718H8V11.6287H10.4487C11.5448 11.6287 12.0812 11.9552 12.0812 12.8414V27.3703C12.0812 28.5829 11.4748 28.9562 10.8218 28.9562H8.32649V32.4076H14.6698V37.7715H17.958V32.4076H20.1501V37.7715H23.3452V32.4076H24.0448C30.7612 32.4076 33 29.1194 33 24.6418C32.9463 22.0018 31.1157 19.7303 28.5457 19.1147ZM17.8414 11.8386H20.1734C21.8059 11.8386 25.0242 12.1185 25.0242 14.777C25.1362 16.5121 23.8792 18.0327 22.1557 18.2518H17.8414V11.8386ZM21.4561 28.6295V28.6062H17.8414V21.61H22.0392C23.0187 21.61 26.7033 21.9364 26.7033 24.5484C26.7033 27.1603 24.9543 28.6295 21.4561 28.6295Z" fill="#096CFF"/>
</svg>
