<svg width="133" height="41" viewBox="0 0 133 41" fill="none" xmlns="http://www.w3.org/2000/svg">
<path d="M48.4399 12.4H53.8399C55.2559 12.4 56.2999 12.7 56.9719 13.3C57.6439 13.888 57.9799 14.71 57.9799 15.766C57.9799 16.414 57.8179 16.972 57.4939 17.44C57.1819 17.896 56.7499 18.226 56.1979 18.43C56.9179 18.598 57.4819 18.94 57.8899 19.456C58.3099 19.96 58.5199 20.62 58.5199 21.436C58.5199 21.976 58.4359 22.468 58.2679 22.912C58.0999 23.344 57.8359 23.716 57.4759 24.028C57.1279 24.34 56.6719 24.58 56.1079 24.748C55.5439 24.916 54.8659 25 54.0739 25H48.4399V12.4ZM53.5879 22.948C54.4279 22.948 55.0099 22.804 55.3339 22.516C55.6579 22.228 55.8199 21.802 55.8199 21.238C55.8199 20.674 55.6579 20.236 55.3339 19.924C55.0099 19.6 54.4219 19.438 53.5699 19.438H51.1399V22.948H53.5879ZM53.2999 17.602C54.0319 17.602 54.5419 17.458 54.8299 17.17C55.1299 16.882 55.2799 16.492 55.2799 16C55.2799 15.496 55.1359 15.112 54.8479 14.848C54.5599 14.584 54.0499 14.452 53.3179 14.452H51.1399V17.602H53.2999ZM60.4943 15.46H62.8703V25H60.4943V15.46ZM61.6823 14.56C61.2623 14.56 60.9143 14.428 60.6383 14.164C60.3743 13.888 60.2423 13.54 60.2423 13.12C60.2423 12.7 60.3743 12.358 60.6383 12.094C60.9143 11.818 61.2623 11.68 61.6823 11.68C62.1023 11.68 62.4443 11.818 62.7083 12.094C62.9843 12.358 63.1223 12.7 63.1223 13.12C63.1223 13.54 62.9843 13.888 62.7083 14.164C62.4443 14.428 62.1023 14.56 61.6823 14.56ZM69.0886 25.108C67.9606 25.108 67.1386 24.868 66.6226 24.388C66.1066 23.896 65.8486 23.08 65.8486 21.94V17.44H64.5886V15.46H65.8486V13.3H68.2246V15.46H70.5286V17.44H68.2246V21.58C68.2246 22.12 68.3206 22.51 68.5126 22.75C68.7166 22.978 69.0886 23.092 69.6286 23.092C69.9886 23.092 70.3486 23.074 70.7086 23.038V25.018C70.4806 25.042 70.2406 25.06 69.9886 25.072C69.7486 25.096 69.4486 25.108 69.0886 25.108ZM76.5677 25.216C75.9077 25.216 75.2897 25.114 74.7137 24.91C74.1497 24.706 73.6577 24.4 73.2377 23.992C72.8177 23.584 72.4877 23.074 72.2477 22.462C72.0077 21.85 71.8877 21.136 71.8877 20.32V19.96C71.8877 19.192 72.0137 18.514 72.2657 17.926C72.5177 17.338 72.8537 16.846 73.2737 16.45C73.7057 16.054 74.2037 15.754 74.7677 15.55C75.3317 15.346 75.9317 15.244 76.5677 15.244C77.2397 15.244 77.8337 15.334 78.3497 15.514C78.8777 15.694 79.3217 15.94 79.6817 16.252C80.0417 16.564 80.3237 16.93 80.5277 17.35C80.7317 17.77 80.8517 18.22 80.8877 18.7H78.4757C78.3797 18.256 78.1817 17.908 77.8817 17.656C77.5937 17.392 77.1557 17.26 76.5677 17.26C76.2557 17.26 75.9617 17.314 75.6857 17.422C75.4217 17.53 75.1817 17.698 74.9657 17.926C74.7617 18.142 74.5997 18.418 74.4797 18.754C74.3597 19.09 74.2997 19.492 74.2997 19.96V20.32C74.2997 20.824 74.3537 21.262 74.4617 21.634C74.5817 21.994 74.7437 22.294 74.9477 22.534C75.1517 22.762 75.3917 22.93 75.6677 23.038C75.9437 23.146 76.2437 23.2 76.5677 23.2C77.0357 23.2 77.4377 23.08 77.7737 22.84C78.1217 22.588 78.3557 22.228 78.4757 21.76H80.8877C80.8277 22.288 80.6777 22.768 80.4377 23.2C80.2097 23.62 79.9037 23.98 79.5197 24.28C79.1477 24.58 78.7097 24.814 78.2057 24.982C77.7017 25.138 77.1557 25.216 76.5677 25.216ZM86.8354 25.216C86.1874 25.216 85.5694 25.12 84.9814 24.928C84.4054 24.724 83.9014 24.418 83.4694 24.01C83.0374 23.602 82.6954 23.092 82.4434 22.48C82.1914 21.868 82.0654 21.148 82.0654 20.32V19.96C82.0654 19.18 82.1914 18.496 82.4434 17.908C82.6954 17.32 83.0374 16.828 83.4694 16.432C83.9014 16.036 84.4054 15.742 84.9814 15.55C85.5694 15.346 86.1874 15.244 86.8354 15.244C87.4834 15.244 88.0954 15.346 88.6714 15.55C89.2474 15.742 89.7514 16.036 90.1834 16.432C90.6274 16.828 90.9754 17.32 91.2274 17.908C91.4794 18.496 91.6054 19.18 91.6054 19.96V20.32C91.6054 21.136 91.4794 21.85 91.2274 22.462C90.9754 23.074 90.6274 23.584 90.1834 23.992C89.7514 24.4 89.2474 24.706 88.6714 24.91C88.0954 25.114 87.4834 25.216 86.8354 25.216ZM86.8354 23.2C87.5074 23.2 88.0654 22.96 88.5094 22.48C88.9654 22 89.1934 21.28 89.1934 20.32V19.96C89.1934 19.084 88.9654 18.418 88.5094 17.962C88.0654 17.494 87.5074 17.26 86.8354 17.26C86.1514 17.26 85.5874 17.494 85.1434 17.962C84.6994 18.418 84.4774 19.084 84.4774 19.96V20.32C84.4774 21.292 84.6994 22.018 85.1434 22.498C85.5874 22.966 86.1514 23.2 86.8354 23.2ZM93.4884 15.46H95.8644V25H93.4884V15.46ZM94.6764 14.56C94.2564 14.56 93.9084 14.428 93.6324 14.164C93.3684 13.888 93.2364 13.54 93.2364 13.12C93.2364 12.7 93.3684 12.358 93.6324 12.094C93.9084 11.818 94.2564 11.68 94.6764 11.68C95.0964 11.68 95.4384 11.818 95.7024 12.094C95.9784 12.358 96.1164 12.7 96.1164 13.12C96.1164 13.54 95.9784 13.888 95.7024 14.164C95.4384 14.428 95.0964 14.56 94.6764 14.56ZM98.2127 15.46H100.409V16.864C100.637 16.432 101.003 16.054 101.507 15.73C102.023 15.406 102.713 15.244 103.577 15.244C104.741 15.244 105.605 15.556 106.169 16.18C106.745 16.804 107.033 17.704 107.033 18.88V25H104.657V19.42C104.657 18.7 104.507 18.16 104.207 17.8C103.919 17.44 103.421 17.26 102.713 17.26C102.329 17.26 102.005 17.32 101.741 17.44C101.477 17.56 101.255 17.722 101.075 17.926C100.907 18.118 100.781 18.346 100.697 18.61C100.625 18.862 100.589 19.132 100.589 19.42V25H98.2127V15.46Z" fill="white"/>
<path d="M28.5457 19.1147C30.5607 17.9789 31.6498 15.7052 31.2743 13.4243C30.8079 9.90295 26.6102 8.57356 23.2986 8.29379V3H20.0336V8.24718H17.8415V3H14.5766V8.24718H8V11.6287H10.4487C11.5448 11.6287 12.0812 11.9552 12.0812 12.8414V27.3703C12.0812 28.5829 11.4748 28.9562 10.8218 28.9562H8.32649V32.4076H14.6698V37.7715H17.958V32.4076H20.1501V37.7715H23.3452V32.4076H24.0448C30.7612 32.4076 33 29.1194 33 24.6418C32.9463 22.0018 31.1157 19.7303 28.5457 19.1147ZM17.8414 11.8386H20.1734C21.8059 11.8386 25.0242 12.1185 25.0242 14.777C25.1362 16.5121 23.8792 18.0327 22.1557 18.2518H17.8414V11.8386ZM21.4561 28.6295V28.6062H17.8414V21.61H22.0392C23.0187 21.61 26.7033 21.9364 26.7033 24.5484C26.7033 27.1603 24.9543 28.6295 21.4561 28.6295Z" fill="#FFA409"/>
</svg>
