<svg width="55" height="55" viewBox="0 0 55 55" fill="none" xmlns="http://www.w3.org/2000/svg">
<path d="M3.27944 3.22475H11.0188V0H0.0546875V10.9641H3.27944V3.22475Z" fill="url(#paint0_linear)"/>
<path d="M3.27944 3.22475H11.0188V0H0.0546875V10.9641H3.27944V3.22475Z" fill="white"/>
<path d="M47.2587 47.4785V14.7224H38.3302V17.9471H44.0339V22.3246H39.9957V25.5493H44.0339V30.141H34.811V25.2166H31.5863V30.141H31.5333H24.9979V16.9686H28.3066V13.7439H24.9979V7.78271H7.66016V25.1203H21.773V36.9644H16.5944V44.2537H9.32542V47.4785H24.9978V44.2537H19.8192V40.1892H24.9978V33.3657H29.9208V47.4786H47.2587V47.4785ZM44.0339 44.2537H33.1457V33.3656H44.0339V44.2537ZM10.8849 11.0075H21.773V21.8956H10.8849V11.0075Z" fill="url(#paint1_linear)"/>
<path d="M47.2587 47.4785V14.7224H38.3302V17.9471H44.0339V22.3246H39.9957V25.5493H44.0339V30.141H34.811V25.2166H31.5863V30.141H31.5333H24.9979V16.9686H28.3066V13.7439H24.9979V7.78271H7.66016V25.1203H21.773V36.9644H16.5944V44.2537H9.32542V47.4785H24.9978V44.2537H19.8192V40.1892H24.9978V33.3657H29.9208V47.4786H47.2587V47.4785ZM44.0339 44.2537H33.1457V33.3656H44.0339V44.2537ZM10.8849 11.0075H21.773V21.8956H10.8849V11.0075Z" fill="white"/>
<path d="M38.3302 14.7224V17.9471H44.034V22.3246H39.9957V25.5493H44.034V30.1409H34.8111V25.2165H31.5863V30.1409H31.5333H28.3066V33.3657H29.9209V47.4786H47.2587V14.7224H38.3302ZM44.034 44.2537H33.1457V33.3656H44.034V44.2537Z" fill="url(#paint2_linear)"/>
<path d="M38.3302 14.7224V17.9471H44.034V22.3246H39.9957V25.5493H44.034V30.1409H34.8111V25.2165H31.5863V30.1409H31.5333H28.3066V33.3657H29.9209V47.4786H47.2587V14.7224H38.3302ZM44.034 44.2537H33.1457V33.3656H44.034V44.2537Z" fill="white"/>
<path d="M38.3828 7.78271H47.2582V11.0075H38.3828V7.78271Z" fill="url(#paint3_linear)"/>
<path d="M38.3828 7.78271H47.2582V11.0075H38.3828V7.78271Z" fill="white"/>
<path d="M14.6641 14.5719H17.9947V17.7966H14.6641V14.5719Z" fill="#8095FF"/>
<path d="M14.6641 14.5719H17.9947V17.7966H14.6641V14.5719Z" fill="url(#paint4_linear)"/>
<path d="M14.6641 14.5719H17.9947V17.7966H14.6641V14.5719Z" fill="white"/>
<path d="M36.666 37.1974H39.9966V40.4221H36.666V37.1974Z" fill="#6666FF"/>
<path d="M36.666 37.1974H39.9966V40.4221H36.666V37.1974Z" fill="url(#paint5_linear)"/>
<path d="M36.666 37.1974H39.9966V40.4221H36.666V37.1974Z" fill="white"/>
<path d="M30.9062 7.78271H34.2369V11.0075H30.9062V7.78271Z" fill="url(#paint6_linear)"/>
<path d="M30.9062 7.78271H34.2369V11.0075H30.9062V7.78271Z" fill="white"/>
<path d="M31.5332 18.7868H34.8638V22.0116H31.5332V18.7868Z" fill="url(#paint7_linear)"/>
<path d="M31.5332 18.7868H34.8638V22.0116H31.5332V18.7868Z" fill="white"/>
<path d="M9.27344 36.9644H12.6041V40.1892H9.27344V36.9644Z" fill="url(#paint8_linear)"/>
<path d="M9.27344 36.9644H12.6041V40.1892H9.27344V36.9644Z" fill="white"/>
<path d="M8.57812 30.1409H17.9412V33.3656H8.57812V30.1409Z" fill="url(#paint9_linear)"/>
<path d="M8.57812 30.1409H17.9412V33.3656H8.57812V30.1409Z" fill="white"/>
<path d="M3.27943 44.0358H0.0546875V55H11.0188V51.7752H3.27943V44.0358Z" fill="url(#paint10_linear)"/>
<path d="M3.27943 44.0358H0.0546875V55H11.0188V51.7752H3.27943V44.0358Z" fill="white"/>
<path d="M43.9824 0V3.22475L51.7218 3.22485V10.9642H54.9466V0.000107492L43.9824 0Z" fill="url(#paint11_linear)"/>
<path d="M43.9824 0V3.22475L51.7218 3.22485V10.9642H54.9466V0.000107492L43.9824 0Z" fill="white"/>
<path d="M51.7218 51.7752L43.9824 51.7751V54.9999L54.9466 55V44.0358H51.7218V51.7752Z" fill="url(#paint12_linear)"/>
<path d="M51.7218 51.7752L43.9824 51.7751V54.9999L54.9466 55V44.0358H51.7218V51.7752Z" fill="white"/>
<defs>
<linearGradient id="paint0_linear" x1="5.53676" y1="0" x2="5.53676" y2="10.9641" gradientUnits="userSpaceOnUse">
<stop stop-color="#FED57D"/>
<stop offset="1" stop-color="#E7B159"/>
</linearGradient>
<linearGradient id="paint1_linear" x1="27.4594" y1="7.78271" x2="27.4594" y2="47.4786" gradientUnits="userSpaceOnUse">
<stop stop-color="#FED57D"/>
<stop offset="1" stop-color="#E7B159"/>
</linearGradient>
<linearGradient id="paint2_linear" x1="37.7827" y1="14.7224" x2="37.7827" y2="47.4786" gradientUnits="userSpaceOnUse">
<stop stop-color="#FED57D"/>
<stop offset="1" stop-color="#E7B159"/>
</linearGradient>
<linearGradient id="paint3_linear" x1="42.8205" y1="7.78271" x2="42.8205" y2="11.0075" gradientUnits="userSpaceOnUse">
<stop stop-color="#FED57D"/>
<stop offset="1" stop-color="#E7B159"/>
</linearGradient>
<linearGradient id="paint4_linear" x1="16.3294" y1="14.5719" x2="16.3294" y2="17.7966" gradientUnits="userSpaceOnUse">
<stop stop-color="#FED57D"/>
<stop offset="1" stop-color="#E7B159"/>
</linearGradient>
<linearGradient id="paint5_linear" x1="38.3313" y1="37.1974" x2="38.3313" y2="40.4221" gradientUnits="userSpaceOnUse">
<stop stop-color="#FED57D"/>
<stop offset="1" stop-color="#E7B159"/>
</linearGradient>
<linearGradient id="paint6_linear" x1="32.5716" y1="7.78271" x2="32.5716" y2="11.0075" gradientUnits="userSpaceOnUse">
<stop stop-color="#FED57D"/>
<stop offset="1" stop-color="#E7B159"/>
</linearGradient>
<linearGradient id="paint7_linear" x1="33.1985" y1="18.7868" x2="33.1985" y2="22.0116" gradientUnits="userSpaceOnUse">
<stop stop-color="#FED57D"/>
<stop offset="1" stop-color="#E7B159"/>
</linearGradient>
<linearGradient id="paint8_linear" x1="10.9388" y1="36.9644" x2="10.9388" y2="40.1892" gradientUnits="userSpaceOnUse">
<stop stop-color="#FED57D"/>
<stop offset="1" stop-color="#E7B159"/>
</linearGradient>
<linearGradient id="paint9_linear" x1="13.2597" y1="30.1409" x2="13.2597" y2="33.3656" gradientUnits="userSpaceOnUse">
<stop stop-color="#FED57D"/>
<stop offset="1" stop-color="#E7B159"/>
</linearGradient>
<linearGradient id="paint10_linear" x1="5.53676" y1="44.0358" x2="5.53676" y2="55" gradientUnits="userSpaceOnUse">
<stop stop-color="#FED57D"/>
<stop offset="1" stop-color="#E7B159"/>
</linearGradient>
<linearGradient id="paint11_linear" x1="49.4645" y1="0" x2="49.4645" y2="10.9642" gradientUnits="userSpaceOnUse">
<stop stop-color="#FED57D"/>
<stop offset="1" stop-color="#E7B159"/>
</linearGradient>
<linearGradient id="paint12_linear" x1="49.4645" y1="44.0358" x2="49.4645" y2="55" gradientUnits="userSpaceOnUse">
<stop stop-color="#FED57D"/>
<stop offset="1" stop-color="#E7B159"/>
</linearGradient>
</defs>
</svg>
