<svg width="42" height="42" viewBox="0 0 42 42" fill="none" xmlns="http://www.w3.org/2000/svg">
<path d="M36.668 30.5156H34.6172V27.6445C34.6172 26.7383 33.8828 26.0039 32.9766 26.0039C32.0704 26.0039 31.3359 26.7383 31.3359 27.6445V30.5156H25.5938V3.28125H28.875C30.232 3.28125 31.3359 4.38515 31.3359 5.74219V19.4414C31.3359 20.3476 32.0704 21.082 32.9766 21.082C33.8828 21.082 34.6172 20.3476 34.6172 19.4414V5.74219C34.6172 2.57597 32.0412 0 28.875 0H5.74219C2.57597 0 0 2.57597 0 5.74219V31.9922C0 32.0201 0.00288391 32.047 0.00416565 32.0742C0.00288391 32.1015 0 32.1284 0 32.1562V36.2578C0 39.424 2.57597 42 5.74219 42H36.668C39.608 42 42 39.608 42 36.668V35.8477C42 32.9077 39.608 30.5156 36.668 30.5156ZM5.74219 3.28125H22.3125V30.5156H3.28125V5.74219C3.28125 4.38515 4.38515 3.28125 5.74219 3.28125ZM3.28125 36.2578C3.28125 34.9008 4.38515 33.7969 5.74219 33.7969C7.09923 33.7969 8.20312 34.9008 8.20312 36.2578C8.20312 37.6149 7.09923 38.7188 5.74219 38.7188C4.38515 38.7188 3.28125 37.6149 3.28125 36.2578ZM38.7188 36.668C38.7188 37.7988 37.7988 38.7188 36.668 38.7188H10.9291C11.2847 37.9725 11.4844 37.138 11.4844 36.2578C11.4844 35.3776 11.2847 34.5432 10.9291 33.7969H36.668C37.7988 33.7969 38.7188 34.7168 38.7188 35.8477V36.668ZM11.4844 8.20312C11.4844 7.29694 12.2188 6.5625 13.125 6.5625H17.3906C18.2968 6.5625 19.0312 7.29694 19.0312 8.20312C19.0312 9.10931 18.2968 9.84375 17.3906 9.84375H13.125C12.2188 9.84375 11.4844 9.10931 11.4844 8.20312ZM6.5625 8.20312C6.5625 7.29694 7.29694 6.5625 8.20312 6.5625C9.10931 6.5625 9.84375 7.29694 9.84375 8.20312C9.84375 9.10931 9.10931 9.84375 8.20312 9.84375C7.29694 9.84375 6.5625 9.10931 6.5625 8.20312ZM11.4844 13.9453C11.4844 13.0391 12.2188 12.3047 13.125 12.3047H17.3906C18.2968 12.3047 19.0312 13.0391 19.0312 13.9453C19.0312 14.8515 18.2968 15.5859 17.3906 15.5859H13.125C12.2188 15.5859 11.4844 14.8515 11.4844 13.9453ZM6.5625 13.9453C6.5625 13.0391 7.29694 12.3047 8.20312 12.3047C9.10931 12.3047 9.84375 13.0391 9.84375 13.9453C9.84375 14.8515 9.10931 15.5859 8.20312 15.5859C7.29694 15.5859 6.5625 14.8515 6.5625 13.9453ZM11.4844 19.6875C11.4844 18.7813 12.2188 18.0469 13.125 18.0469H17.3906C18.2968 18.0469 19.0312 18.7813 19.0312 19.6875C19.0312 20.5937 18.2968 21.3281 17.3906 21.3281H13.125C12.2188 21.3281 11.4844 20.5937 11.4844 19.6875ZM6.5625 19.6875C6.5625 18.7813 7.29694 18.0469 8.20312 18.0469C9.10931 18.0469 9.84375 18.7813 9.84375 19.6875C9.84375 20.5937 9.10931 21.3281 8.20312 21.3281C7.29694 21.3281 6.5625 20.5937 6.5625 19.6875Z" fill="#096CFF"/>
</svg>
