<svg width="55" height="55" viewBox="0 0 55 55" fill="none" xmlns="http://www.w3.org/2000/svg">
<path d="M49.3785 8.90592L28.3238 0.16425C27.7964 -0.0546759 27.2035 -0.0547833 26.6762 0.16425L5.62149 8.90592C4.81959 9.23893 4.29688 10.0218 4.29688 10.8901V21.5168C4.29688 36.1491 13.1408 49.3112 26.6881 54.8407C27.2085 55.0531 27.7914 55.0531 28.3119 54.8407C41.859 49.3113 50.7031 36.1492 50.7031 21.5168V10.8901C50.7031 10.0218 50.1805 9.23893 49.3785 8.90592ZM46.4062 21.5168C46.4062 33.9557 39.1016 45.4066 27.5 50.5179C16.2085 45.5431 8.59375 34.2928 8.59375 21.5168V12.3244L27.5 4.47466L46.4062 12.3244V21.5168ZM25.1253 28.7586L34.3597 19.5243C35.1987 18.6853 36.559 18.6852 37.3981 19.5243C38.2371 20.3633 38.237 21.7236 37.398 22.5626L26.6445 33.316C25.8053 34.1552 24.445 34.1549 23.6062 33.316L17.6019 27.3118C16.7629 26.4727 16.7629 25.1124 17.6019 24.2735C18.441 23.4345 19.8013 23.4344 20.6403 24.2735L25.1253 28.7586Z" fill="#1E1E1E"/>
<path d="M49.3785 8.90592L28.3238 0.16425C27.7964 -0.0546759 27.2035 -0.0547833 26.6762 0.16425L5.62149 8.90592C4.81959 9.23893 4.29688 10.0218 4.29688 10.8901V21.5168C4.29688 36.1491 13.1408 49.3112 26.6881 54.8407C27.2085 55.0531 27.7914 55.0531 28.3119 54.8407C41.859 49.3113 50.7031 36.1492 50.7031 21.5168V10.8901C50.7031 10.0218 50.1805 9.23893 49.3785 8.90592ZM46.4062 21.5168C46.4062 33.9557 39.1016 45.4066 27.5 50.5179C16.2085 45.5431 8.59375 34.2928 8.59375 21.5168V12.3244L27.5 4.47466L46.4062 12.3244V21.5168ZM25.1253 28.7586L34.3597 19.5243C35.1987 18.6853 36.559 18.6852 37.3981 19.5243C38.2371 20.3633 38.237 21.7236 37.398 22.5626L26.6445 33.316C25.8053 34.1552 24.445 34.1549 23.6062 33.316L17.6019 27.3118C16.7629 26.4727 16.7629 25.1124 17.6019 24.2735C18.441 23.4345 19.8013 23.4344 20.6403 24.2735L25.1253 28.7586Z" fill="url(#paint0_linear)"/>
<path d="M49.3785 8.90592L28.3238 0.16425C27.7964 -0.0546759 27.2035 -0.0547833 26.6762 0.16425L5.62149 8.90592C4.81959 9.23893 4.29688 10.0218 4.29688 10.8901V21.5168C4.29688 36.1491 13.1408 49.3112 26.6881 54.8407C27.2085 55.0531 27.7914 55.0531 28.3119 54.8407C41.859 49.3113 50.7031 36.1492 50.7031 21.5168V10.8901C50.7031 10.0218 50.1805 9.23893 49.3785 8.90592ZM46.4062 21.5168C46.4062 33.9557 39.1016 45.4066 27.5 50.5179C16.2085 45.5431 8.59375 34.2928 8.59375 21.5168V12.3244L27.5 4.47466L46.4062 12.3244V21.5168ZM25.1253 28.7586L34.3597 19.5243C35.1987 18.6853 36.559 18.6852 37.3981 19.5243C38.2371 20.3633 38.237 21.7236 37.398 22.5626L26.6445 33.316C25.8053 34.1552 24.445 34.1549 23.6062 33.316L17.6019 27.3118C16.7629 26.4727 16.7629 25.1124 17.6019 24.2735C18.441 23.4345 19.8013 23.4344 20.6403 24.2735L25.1253 28.7586Z" fill="white"/>
<defs>
<linearGradient id="paint0_linear" x1="27.5" y1="1.52588e-05" x2="27.5" y2="55" gradientUnits="userSpaceOnUse">
<stop stop-color="#FED57D"/>
<stop offset="1" stop-color="#E7B159"/>
</linearGradient>
</defs>
</svg>
