<svg width="55" height="55" viewBox="0 0 55 55" fill="none" xmlns="http://www.w3.org/2000/svg">
<path d="M33.0562 50.0952C32.6027 50.2082 32.1403 50.3086 31.6813 50.3931C30.4815 50.6162 29.6884 51.7701 29.9103 52.971C30.0199 53.5618 30.3554 54.0538 30.8109 54.3751C31.2804 54.7055 31.8779 54.8547 32.4868 54.7414C33.0334 54.64 33.5842 54.5207 34.1247 54.3858C35.3095 54.091 36.0313 52.8907 35.7357 51.7065C35.4409 50.5213 34.2417 49.8001 33.0562 50.0952Z" fill="#1E1E1E"/>
<path d="M33.0562 50.0952C32.6027 50.2082 32.1403 50.3086 31.6813 50.3931C30.4815 50.6162 29.6884 51.7701 29.9103 52.971C30.0199 53.5618 30.3554 54.0538 30.8109 54.3751C31.2804 54.7055 31.8779 54.8547 32.4868 54.7414C33.0334 54.64 33.5842 54.5207 34.1247 54.3858C35.3095 54.091 36.0313 52.8907 35.7357 51.7065C35.4409 50.5213 34.2417 49.8001 33.0562 50.0952Z" fill="url(#paint0_linear)"/>
<path d="M33.0562 50.0952C32.6027 50.2082 32.1403 50.3086 31.6813 50.3931C30.4815 50.6162 29.6884 51.7701 29.9103 52.971C30.0199 53.5618 30.3554 54.0538 30.8109 54.3751C31.2804 54.7055 31.8779 54.8547 32.4868 54.7414C33.0334 54.64 33.5842 54.5207 34.1247 54.3858C35.3095 54.091 36.0313 52.8907 35.7357 51.7065C35.4409 50.5213 34.2417 49.8001 33.0562 50.0952Z" fill="white"/>
<path d="M49.4053 20.4591C49.5602 20.9259 49.8559 21.3069 50.2294 21.5702C50.7832 21.9603 51.5078 22.0915 52.1993 21.8629C53.3587 21.4779 53.9868 20.2278 53.6033 19.069C53.4286 18.5408 53.2347 18.0109 53.0281 17.4949C52.5746 16.3611 51.2885 15.8091 50.1541 16.2626C49.0209 16.7159 48.4686 18.0023 48.9225 19.1365C49.0961 19.5702 49.2586 20.0153 49.4053 20.4591Z" fill="#1E1E1E"/>
<path d="M49.4053 20.4591C49.5602 20.9259 49.8559 21.3069 50.2294 21.5702C50.7832 21.9603 51.5078 22.0915 52.1993 21.8629C53.3587 21.4779 53.9868 20.2278 53.6033 19.069C53.4286 18.5408 53.2347 18.0109 53.0281 17.4949C52.5746 16.3611 51.2885 15.8091 50.1541 16.2626C49.0209 16.7159 48.4686 18.0023 48.9225 19.1365C49.0961 19.5702 49.2586 20.0153 49.4053 20.4591Z" fill="url(#paint1_linear)"/>
<path d="M49.4053 20.4591C49.5602 20.9259 49.8559 21.3069 50.2294 21.5702C50.7832 21.9603 51.5078 22.0915 52.1993 21.8629C53.3587 21.4779 53.9868 20.2278 53.6033 19.069C53.4286 18.5408 53.2347 18.0109 53.0281 17.4949C52.5746 16.3611 51.2885 15.8091 50.1541 16.2626C49.0209 16.7159 48.4686 18.0023 48.9225 19.1365C49.0961 19.5702 49.2586 20.0153 49.4053 20.4591Z" fill="white"/>
<path d="M40.2402 46.9384C39.8502 47.1959 39.4476 47.4451 39.0421 47.6786C37.9841 48.2889 37.6217 49.6413 38.2318 50.6989C38.3974 50.9865 38.618 51.2217 38.8721 51.4014C39.5541 51.8813 40.4805 51.9532 41.2517 51.5089C41.7338 51.2308 42.2132 50.935 42.6777 50.6278C43.6962 49.955 43.9765 48.5832 43.3033 47.5643C42.6302 46.545 41.259 46.265 40.2402 46.9384Z" fill="#1E1E1E"/>
<path d="M40.2402 46.9384C39.8502 47.1959 39.4476 47.4451 39.0421 47.6786C37.9841 48.2889 37.6217 49.6413 38.2318 50.6989C38.3974 50.9865 38.618 51.2217 38.8721 51.4014C39.5541 51.8813 40.4805 51.9532 41.2517 51.5089C41.7338 51.2308 42.2132 50.935 42.6777 50.6278C43.6962 49.955 43.9765 48.5832 43.3033 47.5643C42.6302 46.545 41.259 46.265 40.2402 46.9384Z" fill="url(#paint2_linear)"/>
<path d="M40.2402 46.9384C39.8502 47.1959 39.4476 47.4451 39.0421 47.6786C37.9841 48.2889 37.6217 49.6413 38.2318 50.6989C38.3974 50.9865 38.618 51.2217 38.8721 51.4014C39.5541 51.8813 40.4805 51.9532 41.2517 51.5089C41.7338 51.2308 42.2132 50.935 42.6777 50.6278C43.6962 49.955 43.9765 48.5832 43.3033 47.5643C42.6302 46.545 41.259 46.265 40.2402 46.9384Z" fill="white"/>
<path d="M54.9789 26.6345C54.9308 25.4141 53.9029 24.4643 52.6822 24.5119C51.463 24.56 50.5124 25.5883 50.5603 26.8081C50.5787 27.2745 50.5834 27.7479 50.5726 28.2139C50.5555 28.9792 50.9298 29.6614 51.5115 30.0714C51.858 30.3154 52.2785 30.4631 52.7345 30.4735C53.9549 30.5005 54.9662 29.5326 54.9933 28.3117C55.0055 27.7549 55.0009 27.1908 54.9789 26.6345Z" fill="#1E1E1E"/>
<path d="M54.9789 26.6345C54.9308 25.4141 53.9029 24.4643 52.6822 24.5119C51.463 24.56 50.5124 25.5883 50.5603 26.8081C50.5787 27.2745 50.5834 27.7479 50.5726 28.2139C50.5555 28.9792 50.9298 29.6614 51.5115 30.0714C51.858 30.3154 52.2785 30.4631 52.7345 30.4735C53.9549 30.5005 54.9662 29.5326 54.9933 28.3117C55.0055 27.7549 55.0009 27.1908 54.9789 26.6345Z" fill="url(#paint3_linear)"/>
<path d="M54.9789 26.6345C54.9308 25.4141 53.9029 24.4643 52.6822 24.5119C51.463 24.56 50.5124 25.5883 50.5603 26.8081C50.5787 27.2745 50.5834 27.7479 50.5726 28.2139C50.5555 28.9792 50.9298 29.6614 51.5115 30.0714C51.858 30.3154 52.2785 30.4631 52.7345 30.4735C53.9549 30.5005 54.9662 29.5326 54.9933 28.3117C55.0055 27.7549 55.0009 27.1908 54.9789 26.6345Z" fill="white"/>
<path d="M49.045 41.1219C48.0664 40.3877 46.682 40.587 45.9491 41.5638C45.6684 41.9379 45.3728 42.3073 45.0701 42.6631C44.2792 43.5924 44.3909 44.9882 45.3202 45.7797C45.3732 45.8246 45.4267 45.8659 45.4823 45.9047C46.4061 46.556 47.6901 46.4063 48.4371 45.5298C48.7985 45.1053 49.1508 44.664 49.4862 44.2172C50.2192 43.2404 50.0208 41.855 49.045 41.1219Z" fill="#1E1E1E"/>
<path d="M49.045 41.1219C48.0664 40.3877 46.682 40.587 45.9491 41.5638C45.6684 41.9379 45.3728 42.3073 45.0701 42.6631C44.2792 43.5924 44.3909 44.9882 45.3202 45.7797C45.3732 45.8246 45.4267 45.8659 45.4823 45.9047C46.4061 46.556 47.6901 46.4063 48.4371 45.5298C48.7985 45.1053 49.1508 44.664 49.4862 44.2172C50.2192 43.2404 50.0208 41.855 49.045 41.1219Z" fill="url(#paint4_linear)"/>
<path d="M49.045 41.1219C48.0664 40.3877 46.682 40.587 45.9491 41.5638C45.6684 41.9379 45.3728 42.3073 45.0701 42.6631C44.2792 43.5924 44.3909 44.9882 45.3202 45.7797C45.3732 45.8246 45.4267 45.8659 45.4823 45.9047C46.4061 46.556 47.6901 46.4063 48.4371 45.5298C48.7985 45.1053 49.1508 44.664 49.4862 44.2172C50.2192 43.2404 50.0208 41.855 49.045 41.1219Z" fill="white"/>
<path d="M52.2962 33.1292C51.131 32.7639 49.8902 33.4125 49.5251 34.5776C49.3854 35.0228 49.2305 35.47 49.0633 35.9081C48.6962 36.8723 49.0479 37.9333 49.8543 38.5019C50.0022 38.6058 50.1651 38.6939 50.3421 38.7608C51.4829 39.1961 52.7603 38.6238 53.1952 37.4825C53.3937 36.9617 53.5779 36.4296 53.7445 35.9004C54.1092 34.735 53.4611 33.4946 52.2962 33.1292Z" fill="#1E1E1E"/>
<path d="M52.2962 33.1292C51.131 32.7639 49.8902 33.4125 49.5251 34.5776C49.3854 35.0228 49.2305 35.47 49.0633 35.9081C48.6962 36.8723 49.0479 37.9333 49.8543 38.5019C50.0022 38.6058 50.1651 38.6939 50.3421 38.7608C51.4829 39.1961 52.7603 38.6238 53.1952 37.4825C53.3937 36.9617 53.5779 36.4296 53.7445 35.9004C54.1092 34.735 53.4611 33.4946 52.2962 33.1292Z" fill="url(#paint5_linear)"/>
<path d="M52.2962 33.1292C51.131 32.7639 49.8902 33.4125 49.5251 34.5776C49.3854 35.0228 49.2305 35.47 49.0633 35.9081C48.6962 36.8723 49.0479 37.9333 49.8543 38.5019C50.0022 38.6058 50.1651 38.6939 50.3421 38.7608C51.4829 39.1961 52.7603 38.6238 53.1952 37.4825C53.3937 36.9617 53.5779 36.4296 53.7445 35.9004C54.1092 34.735 53.4611 33.4946 52.2962 33.1292Z" fill="white"/>
<path d="M23.4091 50.413C21.4323 50.0581 19.5361 49.4537 17.7379 48.6107C17.7166 48.5996 17.6976 48.5869 17.6753 48.5768C17.2515 48.3773 16.8285 48.1637 16.4185 47.9405C16.4171 47.9388 16.4145 47.9377 16.4122 47.9368C15.6599 47.5225 14.9257 47.0641 14.2125 46.562C3.81165 39.2354 1.31087 24.8129 8.63798 14.4122C10.2312 12.1514 12.1593 10.2653 14.3088 8.77045C14.3353 8.75201 14.3618 8.73368 14.388 8.71512C21.9626 3.49603 32.2477 3.1443 40.2906 8.50739L38.5632 11.0033C38.083 11.698 38.3784 12.2043 39.2191 12.1286L46.7228 11.4568C47.5645 11.3812 48.068 10.653 47.8416 9.84007L45.8266 2.58011C45.601 1.76623 45.0235 1.66881 44.5427 2.3634L42.8113 4.86524C36.9088 0.90304 29.8294 -0.607805 22.8027 0.610661C22.095 0.733146 21.3972 0.88306 20.709 1.05757C20.7037 1.05851 20.6994 1.0591 20.6952 1.06005C20.6686 1.06655 20.6416 1.07518 20.6157 1.08239C14.5565 2.6384 9.26991 6.17238 5.49759 11.2146C5.46579 11.2523 5.43304 11.2892 5.40301 11.3302C5.27757 11.4992 5.15307 11.672 5.03118 11.8449C4.83184 12.1281 4.63535 12.4185 4.44736 12.7089C4.42384 12.7439 4.40587 12.7795 4.38529 12.8148C1.27233 17.6387 -0.229172 23.2155 0.0283301 28.8931C0.0289212 28.9118 0.0278571 28.9306 0.0283301 28.9497C0.0532763 29.5043 0.0972574 30.0666 0.156963 30.6202C0.160155 30.6559 0.168076 30.6897 0.174106 30.7254C0.235821 31.282 0.313261 31.84 0.410327 32.3978C1.39683 38.089 4.08156 43.2104 8.10453 47.1953C8.11387 47.2046 8.12357 47.2148 8.13303 47.2245C8.13634 47.2281 8.14 47.23 8.14319 47.2334C9.22404 48.2995 10.3997 49.2855 11.6656 50.1771C14.9783 52.5114 18.6672 54.0544 22.6288 54.7653C23.8308 54.9813 24.9791 54.1812 25.1947 52.9797C25.4103 51.7775 24.6108 50.6283 23.4091 50.413Z" fill="#1E1E1E"/>
<path d="M23.4091 50.413C21.4323 50.0581 19.5361 49.4537 17.7379 48.6107C17.7166 48.5996 17.6976 48.5869 17.6753 48.5768C17.2515 48.3773 16.8285 48.1637 16.4185 47.9405C16.4171 47.9388 16.4145 47.9377 16.4122 47.9368C15.6599 47.5225 14.9257 47.0641 14.2125 46.562C3.81165 39.2354 1.31087 24.8129 8.63798 14.4122C10.2312 12.1514 12.1593 10.2653 14.3088 8.77045C14.3353 8.75201 14.3618 8.73368 14.388 8.71512C21.9626 3.49603 32.2477 3.1443 40.2906 8.50739L38.5632 11.0033C38.083 11.698 38.3784 12.2043 39.2191 12.1286L46.7228 11.4568C47.5645 11.3812 48.068 10.653 47.8416 9.84007L45.8266 2.58011C45.601 1.76623 45.0235 1.66881 44.5427 2.3634L42.8113 4.86524C36.9088 0.90304 29.8294 -0.607805 22.8027 0.610661C22.095 0.733146 21.3972 0.88306 20.709 1.05757C20.7037 1.05851 20.6994 1.0591 20.6952 1.06005C20.6686 1.06655 20.6416 1.07518 20.6157 1.08239C14.5565 2.6384 9.26991 6.17238 5.49759 11.2146C5.46579 11.2523 5.43304 11.2892 5.40301 11.3302C5.27757 11.4992 5.15307 11.672 5.03118 11.8449C4.83184 12.1281 4.63535 12.4185 4.44736 12.7089C4.42384 12.7439 4.40587 12.7795 4.38529 12.8148C1.27233 17.6387 -0.229172 23.2155 0.0283301 28.8931C0.0289212 28.9118 0.0278571 28.9306 0.0283301 28.9497C0.0532763 29.5043 0.0972574 30.0666 0.156963 30.6202C0.160155 30.6559 0.168076 30.6897 0.174106 30.7254C0.235821 31.282 0.313261 31.84 0.410327 32.3978C1.39683 38.089 4.08156 43.2104 8.10453 47.1953C8.11387 47.2046 8.12357 47.2148 8.13303 47.2245C8.13634 47.2281 8.14 47.23 8.14319 47.2334C9.22404 48.2995 10.3997 49.2855 11.6656 50.1771C14.9783 52.5114 18.6672 54.0544 22.6288 54.7653C23.8308 54.9813 24.9791 54.1812 25.1947 52.9797C25.4103 51.7775 24.6108 50.6283 23.4091 50.413Z" fill="url(#paint6_linear)"/>
<path d="M23.4091 50.413C21.4323 50.0581 19.5361 49.4537 17.7379 48.6107C17.7166 48.5996 17.6976 48.5869 17.6753 48.5768C17.2515 48.3773 16.8285 48.1637 16.4185 47.9405C16.4171 47.9388 16.4145 47.9377 16.4122 47.9368C15.6599 47.5225 14.9257 47.0641 14.2125 46.562C3.81165 39.2354 1.31087 24.8129 8.63798 14.4122C10.2312 12.1514 12.1593 10.2653 14.3088 8.77045C14.3353 8.75201 14.3618 8.73368 14.388 8.71512C21.9626 3.49603 32.2477 3.1443 40.2906 8.50739L38.5632 11.0033C38.083 11.698 38.3784 12.2043 39.2191 12.1286L46.7228 11.4568C47.5645 11.3812 48.068 10.653 47.8416 9.84007L45.8266 2.58011C45.601 1.76623 45.0235 1.66881 44.5427 2.3634L42.8113 4.86524C36.9088 0.90304 29.8294 -0.607805 22.8027 0.610661C22.095 0.733146 21.3972 0.88306 20.709 1.05757C20.7037 1.05851 20.6994 1.0591 20.6952 1.06005C20.6686 1.06655 20.6416 1.07518 20.6157 1.08239C14.5565 2.6384 9.26991 6.17238 5.49759 11.2146C5.46579 11.2523 5.43304 11.2892 5.40301 11.3302C5.27757 11.4992 5.15307 11.672 5.03118 11.8449C4.83184 12.1281 4.63535 12.4185 4.44736 12.7089C4.42384 12.7439 4.40587 12.7795 4.38529 12.8148C1.27233 17.6387 -0.229172 23.2155 0.0283301 28.8931C0.0289212 28.9118 0.0278571 28.9306 0.0283301 28.9497C0.0532763 29.5043 0.0972574 30.0666 0.156963 30.6202C0.160155 30.6559 0.168076 30.6897 0.174106 30.7254C0.235821 31.282 0.313261 31.84 0.410327 32.3978C1.39683 38.089 4.08156 43.2104 8.10453 47.1953C8.11387 47.2046 8.12357 47.2148 8.13303 47.2245C8.13634 47.2281 8.14 47.23 8.14319 47.2334C9.22404 48.2995 10.3997 49.2855 11.6656 50.1771C14.9783 52.5114 18.6672 54.0544 22.6288 54.7653C23.8308 54.9813 24.9791 54.1812 25.1947 52.9797C25.4103 51.7775 24.6108 50.6283 23.4091 50.413Z" fill="white"/>
<path d="M26.1431 9.8364C25.1544 9.8364 24.3535 10.638 24.3535 11.6253V29.4479L40.6537 37.8742C40.9161 38.0101 41.197 38.074 41.4734 38.074C42.1208 38.074 42.7461 37.7215 43.064 37.1063C43.5174 36.2284 43.1743 35.1498 42.2964 34.6963L27.9308 27.2695V11.6253C27.9306 10.638 27.1307 9.8364 26.1431 9.8364Z" fill="#1E1E1E"/>
<path d="M26.1431 9.8364C25.1544 9.8364 24.3535 10.638 24.3535 11.6253V29.4479L40.6537 37.8742C40.9161 38.0101 41.197 38.074 41.4734 38.074C42.1208 38.074 42.7461 37.7215 43.064 37.1063C43.5174 36.2284 43.1743 35.1498 42.2964 34.6963L27.9308 27.2695V11.6253C27.9306 10.638 27.1307 9.8364 26.1431 9.8364Z" fill="url(#paint7_linear)"/>
<path d="M26.1431 9.8364C25.1544 9.8364 24.3535 10.638 24.3535 11.6253V29.4479L40.6537 37.8742C40.9161 38.0101 41.197 38.074 41.4734 38.074C42.1208 38.074 42.7461 37.7215 43.064 37.1063C43.5174 36.2284 43.1743 35.1498 42.2964 34.6963L27.9308 27.2695V11.6253C27.9306 10.638 27.1307 9.8364 26.1431 9.8364Z" fill="white"/>
<defs>
<linearGradient id="paint0_linear" x1="32.8375" y1="50.0291" x2="32.8375" y2="54.779" gradientUnits="userSpaceOnUse">
<stop stop-color="#FED57D"/>
<stop offset="1" stop-color="#E7B159"/>
</linearGradient>
<linearGradient id="paint1_linear" x1="51.2398" y1="16.1039" x2="51.2398" y2="21.9753" gradientUnits="userSpaceOnUse">
<stop stop-color="#FED57D"/>
<stop offset="1" stop-color="#E7B159"/>
</linearGradient>
<linearGradient id="paint2_linear" x1="40.8027" y1="46.5717" x2="40.8027" y2="51.805" gradientUnits="userSpaceOnUse">
<stop stop-color="#FED57D"/>
<stop offset="1" stop-color="#E7B159"/>
</linearGradient>
<linearGradient id="paint3_linear" x1="52.7792" y1="24.5102" x2="52.7792" y2="30.474" gradientUnits="userSpaceOnUse">
<stop stop-color="#FED57D"/>
<stop offset="1" stop-color="#E7B159"/>
</linearGradient>
<linearGradient id="paint4_linear" x1="47.2359" y1="40.6788" x2="47.2359" y2="46.307" gradientUnits="userSpaceOnUse">
<stop stop-color="#FED57D"/>
<stop offset="1" stop-color="#E7B159"/>
</linearGradient>
<linearGradient id="paint5_linear" x1="51.382" y1="33.0274" x2="51.382" y2="38.9066" gradientUnits="userSpaceOnUse">
<stop stop-color="#FED57D"/>
<stop offset="1" stop-color="#E7B159"/>
</linearGradient>
<linearGradient id="paint6_linear" x1="23.9479" y1="0.199539" x2="23.9479" y2="54.8005" gradientUnits="userSpaceOnUse">
<stop stop-color="#FED57D"/>
<stop offset="1" stop-color="#E7B159"/>
</linearGradient>
<linearGradient id="paint7_linear" x1="33.8088" y1="9.8364" x2="33.8088" y2="38.074" gradientUnits="userSpaceOnUse">
<stop stop-color="#FED57D"/>
<stop offset="1" stop-color="#E7B159"/>
</linearGradient>
</defs>
</svg>
