<svg width="55" height="55" viewBox="0 0 55 55" fill="none" xmlns="http://www.w3.org/2000/svg">
<path d="M33.0562 50.0954C32.6027 50.2084 32.1403 50.3088 31.6813 50.3933C30.4815 50.6164 29.6884 51.7703 29.9103 52.9712C30.0199 53.562 30.3554 54.054 30.8109 54.3753C31.2804 54.7057 31.8779 54.8549 32.4868 54.7416C33.0334 54.6402 33.5842 54.5209 34.1247 54.386C35.3095 54.0912 36.0313 52.8909 35.7357 51.7067C35.4409 50.5215 34.2417 49.8003 33.0562 50.0954Z" fill="white"/>
<path d="M33.0562 50.0954C32.6027 50.2084 32.1403 50.3088 31.6813 50.3933C30.4815 50.6164 29.6884 51.7703 29.9103 52.9712C30.0199 53.562 30.3554 54.054 30.8109 54.3753C31.2804 54.7057 31.8779 54.8549 32.4868 54.7416C33.0334 54.6402 33.5842 54.5209 34.1247 54.386C35.3095 54.0912 36.0313 52.8909 35.7357 51.7067C35.4409 50.5215 34.2417 49.8003 33.0562 50.0954Z" fill="url(#paint0_linear_7_97)"/>
<path d="M33.0562 50.0954C32.6027 50.2084 32.1403 50.3088 31.6813 50.3933C30.4815 50.6164 29.6884 51.7703 29.9103 52.9712C30.0199 53.562 30.3554 54.054 30.8109 54.3753C31.2804 54.7057 31.8779 54.8549 32.4868 54.7416C33.0334 54.6402 33.5842 54.5209 34.1247 54.386C35.3095 54.0912 36.0313 52.8909 35.7357 51.7067C35.4409 50.5215 34.2417 49.8003 33.0562 50.0954Z" fill="white"/>
<path d="M49.4053 20.4592C49.5602 20.926 49.8559 21.3069 50.2294 21.5702C50.7832 21.9603 51.5078 22.0915 52.1993 21.8629C53.3587 21.4779 53.9868 20.2278 53.6033 19.069C53.4286 18.5408 53.2347 18.0109 53.0281 17.4949C52.5746 16.3611 51.2885 15.8091 50.1541 16.2626C49.0209 16.7159 48.4686 18.0023 48.9225 19.1365C49.0961 19.5702 49.2586 20.0154 49.4053 20.4592Z" fill="white"/>
<path d="M49.4053 20.4592C49.5602 20.926 49.8559 21.3069 50.2294 21.5702C50.7832 21.9603 51.5078 22.0915 52.1993 21.8629C53.3587 21.4779 53.9868 20.2278 53.6033 19.069C53.4286 18.5408 53.2347 18.0109 53.0281 17.4949C52.5746 16.3611 51.2885 15.8091 50.1541 16.2626C49.0209 16.7159 48.4686 18.0023 48.9225 19.1365C49.0961 19.5702 49.2586 20.0154 49.4053 20.4592Z" fill="url(#paint1_linear_7_97)"/>
<path d="M49.4053 20.4592C49.5602 20.926 49.8559 21.3069 50.2294 21.5702C50.7832 21.9603 51.5078 22.0915 52.1993 21.8629C53.3587 21.4779 53.9868 20.2278 53.6033 19.069C53.4286 18.5408 53.2347 18.0109 53.0281 17.4949C52.5746 16.3611 51.2885 15.8091 50.1541 16.2626C49.0209 16.7159 48.4686 18.0023 48.9225 19.1365C49.0961 19.5702 49.2586 20.0154 49.4053 20.4592Z" fill="white"/>
<path d="M40.2402 46.9385C39.8502 47.196 39.4476 47.4452 39.0421 47.6787C37.9841 48.289 37.6217 49.6414 38.2318 50.699C38.3974 50.9866 38.618 51.2218 38.8721 51.4015C39.5541 51.8814 40.4805 51.9533 41.2517 51.509C41.7338 51.2309 42.2132 50.9351 42.6777 50.6279C43.6962 49.9551 43.9765 48.5833 43.3033 47.5644C42.6302 46.5451 41.259 46.2651 40.2402 46.9385Z" fill="white"/>
<path d="M40.2402 46.9385C39.8502 47.196 39.4476 47.4452 39.0421 47.6787C37.9841 48.289 37.6217 49.6414 38.2318 50.699C38.3974 50.9866 38.618 51.2218 38.8721 51.4015C39.5541 51.8814 40.4805 51.9533 41.2517 51.509C41.7338 51.2309 42.2132 50.9351 42.6777 50.6279C43.6962 49.9551 43.9765 48.5833 43.3033 47.5644C42.6302 46.5451 41.259 46.2651 40.2402 46.9385Z" fill="url(#paint2_linear_7_97)"/>
<path d="M40.2402 46.9385C39.8502 47.196 39.4476 47.4452 39.0421 47.6787C37.9841 48.289 37.6217 49.6414 38.2318 50.699C38.3974 50.9866 38.618 51.2218 38.8721 51.4015C39.5541 51.8814 40.4805 51.9533 41.2517 51.509C41.7338 51.2309 42.2132 50.9351 42.6777 50.6279C43.6962 49.9551 43.9765 48.5833 43.3033 47.5644C42.6302 46.5451 41.259 46.2651 40.2402 46.9385Z" fill="white"/>
<path d="M54.9789 26.6346C54.9308 25.4142 53.9029 24.4644 52.6822 24.512C51.463 24.5601 50.5124 25.5884 50.5603 26.8082C50.5787 27.2746 50.5834 27.748 50.5726 28.214C50.5555 28.9793 50.9298 29.6615 51.5115 30.0715C51.858 30.3155 52.2785 30.4632 52.7345 30.4736C53.9549 30.5006 54.9662 29.5327 54.9933 28.3118C55.0055 27.755 55.0009 27.1909 54.9789 26.6346Z" fill="white"/>
<path d="M54.9789 26.6346C54.9308 25.4142 53.9029 24.4644 52.6822 24.512C51.463 24.5601 50.5124 25.5884 50.5603 26.8082C50.5787 27.2746 50.5834 27.748 50.5726 28.214C50.5555 28.9793 50.9298 29.6615 51.5115 30.0715C51.858 30.3155 52.2785 30.4632 52.7345 30.4736C53.9549 30.5006 54.9662 29.5327 54.9933 28.3118C55.0055 27.755 55.0009 27.1909 54.9789 26.6346Z" fill="url(#paint3_linear_7_97)"/>
<path d="M54.9789 26.6346C54.9308 25.4142 53.9029 24.4644 52.6822 24.512C51.463 24.5601 50.5124 25.5884 50.5603 26.8082C50.5787 27.2746 50.5834 27.748 50.5726 28.214C50.5555 28.9793 50.9298 29.6615 51.5115 30.0715C51.858 30.3155 52.2785 30.4632 52.7345 30.4736C53.9549 30.5006 54.9662 29.5327 54.9933 28.3118C55.0055 27.755 55.0009 27.1909 54.9789 26.6346Z" fill="white"/>
<path d="M49.045 41.1218C48.0664 40.3876 46.682 40.5869 45.9491 41.5637C45.6684 41.9378 45.3728 42.3072 45.0701 42.663C44.2792 43.5923 44.3909 44.9881 45.3202 45.7796C45.3732 45.8245 45.4267 45.8658 45.4823 45.9046C46.4061 46.5559 47.6901 46.4062 48.4371 45.5297C48.7985 45.1052 49.1508 44.6639 49.4862 44.2171C50.2192 43.2403 50.0208 41.8549 49.045 41.1218Z" fill="white"/>
<path d="M49.045 41.1218C48.0664 40.3876 46.682 40.5869 45.9491 41.5637C45.6684 41.9378 45.3728 42.3072 45.0701 42.663C44.2792 43.5923 44.3909 44.9881 45.3202 45.7796C45.3732 45.8245 45.4267 45.8658 45.4823 45.9046C46.4061 46.5559 47.6901 46.4062 48.4371 45.5297C48.7985 45.1052 49.1508 44.6639 49.4862 44.2171C50.2192 43.2403 50.0208 41.8549 49.045 41.1218Z" fill="url(#paint4_linear_7_97)"/>
<path d="M49.045 41.1218C48.0664 40.3876 46.682 40.5869 45.9491 41.5637C45.6684 41.9378 45.3728 42.3072 45.0701 42.663C44.2792 43.5923 44.3909 44.9881 45.3202 45.7796C45.3732 45.8245 45.4267 45.8658 45.4823 45.9046C46.4061 46.5559 47.6901 46.4062 48.4371 45.5297C48.7985 45.1052 49.1508 44.6639 49.4862 44.2171C50.2192 43.2403 50.0208 41.8549 49.045 41.1218Z" fill="white"/>
<path d="M52.2962 33.1292C51.131 32.7639 49.8902 33.4125 49.5251 34.5776C49.3854 35.0228 49.2305 35.47 49.0633 35.9081C48.6962 36.8723 49.0479 37.9333 49.8543 38.5019C50.0022 38.6058 50.1651 38.6939 50.3421 38.7608C51.4829 39.1961 52.7603 38.6238 53.1952 37.4825C53.3937 36.9617 53.5779 36.4296 53.7445 35.9004C54.1092 34.735 53.4611 33.4946 52.2962 33.1292Z" fill="white"/>
<path d="M52.2962 33.1292C51.131 32.7639 49.8902 33.4125 49.5251 34.5776C49.3854 35.0228 49.2305 35.47 49.0633 35.9081C48.6962 36.8723 49.0479 37.9333 49.8543 38.5019C50.0022 38.6058 50.1651 38.6939 50.3421 38.7608C51.4829 39.1961 52.7603 38.6238 53.1952 37.4825C53.3937 36.9617 53.5779 36.4296 53.7445 35.9004C54.1092 34.735 53.4611 33.4946 52.2962 33.1292Z" fill="url(#paint5_linear_7_97)"/>
<path d="M52.2962 33.1292C51.131 32.7639 49.8902 33.4125 49.5251 34.5776C49.3854 35.0228 49.2305 35.47 49.0633 35.9081C48.6962 36.8723 49.0479 37.9333 49.8543 38.5019C50.0022 38.6058 50.1651 38.6939 50.3421 38.7608C51.4829 39.1961 52.7603 38.6238 53.1952 37.4825C53.3937 36.9617 53.5779 36.4296 53.7445 35.9004C54.1092 34.735 53.4611 33.4946 52.2962 33.1292Z" fill="white"/>
<path d="M23.4091 50.4132C21.4323 50.0583 19.5361 49.4539 17.7379 48.6109C17.7166 48.5998 17.6976 48.5871 17.6753 48.577C17.2515 48.3775 16.8285 48.1639 16.4185 47.9407C16.4171 47.939 16.4145 47.9379 16.4122 47.937C15.6599 47.5227 14.9257 47.0643 14.2125 46.5622C3.81165 39.2356 1.31087 24.8131 8.63798 14.4124C10.2312 12.1516 12.1593 10.2655 14.3088 8.77062C14.3353 8.75218 14.3618 8.73385 14.388 8.71529C21.9626 3.4962 32.2477 3.14447 40.2906 8.50756L38.5632 11.0035C38.083 11.6982 38.3784 12.2045 39.2191 12.1288L46.7228 11.457C47.5645 11.3814 48.068 10.6532 47.8416 9.84024L45.8266 2.58028C45.601 1.7664 45.0235 1.66898 44.5427 2.36357L42.8113 4.86541C36.9088 0.903208 29.8294 -0.607637 22.8027 0.610829C22.095 0.733314 21.3972 0.883228 20.709 1.05774C20.7037 1.05868 20.6994 1.05927 20.6952 1.06022C20.6686 1.06672 20.6416 1.07535 20.6157 1.08256C14.5565 2.63857 9.26991 6.17255 5.49759 11.2148C5.46579 11.2525 5.43304 11.2894 5.40301 11.3304C5.27757 11.4994 5.15307 11.6722 5.03118 11.8451C4.83184 12.1283 4.63535 12.4187 4.44736 12.7091C4.42384 12.7441 4.40587 12.7797 4.38529 12.815C1.27233 17.6389 -0.229172 23.2157 0.0283301 28.8933C0.0289212 28.912 0.0278571 28.9308 0.0283301 28.9499C0.0532763 29.5045 0.0972574 30.0668 0.156963 30.6204C0.160155 30.6561 0.168076 30.6899 0.174106 30.7256C0.235821 31.2822 0.313261 31.8402 0.410327 32.398C1.39683 38.0892 4.08156 43.2106 8.10453 47.1955C8.11387 47.2048 8.12357 47.215 8.13303 47.2247C8.13634 47.2283 8.14 47.2302 8.14319 47.2336C9.22404 48.2997 10.3997 49.2857 11.6656 50.1773C14.9783 52.5116 18.6672 54.0546 22.6288 54.7655C23.8308 54.9815 24.9791 54.1814 25.1947 52.9799C25.4103 51.7777 24.6108 50.6285 23.4091 50.4132Z" fill="white"/>
<path d="M23.4091 50.4132C21.4323 50.0583 19.5361 49.4539 17.7379 48.6109C17.7166 48.5998 17.6976 48.5871 17.6753 48.577C17.2515 48.3775 16.8285 48.1639 16.4185 47.9407C16.4171 47.939 16.4145 47.9379 16.4122 47.937C15.6599 47.5227 14.9257 47.0643 14.2125 46.5622C3.81165 39.2356 1.31087 24.8131 8.63798 14.4124C10.2312 12.1516 12.1593 10.2655 14.3088 8.77062C14.3353 8.75218 14.3618 8.73385 14.388 8.71529C21.9626 3.4962 32.2477 3.14447 40.2906 8.50756L38.5632 11.0035C38.083 11.6982 38.3784 12.2045 39.2191 12.1288L46.7228 11.457C47.5645 11.3814 48.068 10.6532 47.8416 9.84024L45.8266 2.58028C45.601 1.7664 45.0235 1.66898 44.5427 2.36357L42.8113 4.86541C36.9088 0.903208 29.8294 -0.607637 22.8027 0.610829C22.095 0.733314 21.3972 0.883228 20.709 1.05774C20.7037 1.05868 20.6994 1.05927 20.6952 1.06022C20.6686 1.06672 20.6416 1.07535 20.6157 1.08256C14.5565 2.63857 9.26991 6.17255 5.49759 11.2148C5.46579 11.2525 5.43304 11.2894 5.40301 11.3304C5.27757 11.4994 5.15307 11.6722 5.03118 11.8451C4.83184 12.1283 4.63535 12.4187 4.44736 12.7091C4.42384 12.7441 4.40587 12.7797 4.38529 12.815C1.27233 17.6389 -0.229172 23.2157 0.0283301 28.8933C0.0289212 28.912 0.0278571 28.9308 0.0283301 28.9499C0.0532763 29.5045 0.0972574 30.0668 0.156963 30.6204C0.160155 30.6561 0.168076 30.6899 0.174106 30.7256C0.235821 31.2822 0.313261 31.8402 0.410327 32.398C1.39683 38.0892 4.08156 43.2106 8.10453 47.1955C8.11387 47.2048 8.12357 47.215 8.13303 47.2247C8.13634 47.2283 8.14 47.2302 8.14319 47.2336C9.22404 48.2997 10.3997 49.2857 11.6656 50.1773C14.9783 52.5116 18.6672 54.0546 22.6288 54.7655C23.8308 54.9815 24.9791 54.1814 25.1947 52.9799C25.4103 51.7777 24.6108 50.6285 23.4091 50.4132Z" fill="url(#paint6_linear_7_97)"/>
<path d="M23.4091 50.4132C21.4323 50.0583 19.5361 49.4539 17.7379 48.6109C17.7166 48.5998 17.6976 48.5871 17.6753 48.577C17.2515 48.3775 16.8285 48.1639 16.4185 47.9407C16.4171 47.939 16.4145 47.9379 16.4122 47.937C15.6599 47.5227 14.9257 47.0643 14.2125 46.5622C3.81165 39.2356 1.31087 24.8131 8.63798 14.4124C10.2312 12.1516 12.1593 10.2655 14.3088 8.77062C14.3353 8.75218 14.3618 8.73385 14.388 8.71529C21.9626 3.4962 32.2477 3.14447 40.2906 8.50756L38.5632 11.0035C38.083 11.6982 38.3784 12.2045 39.2191 12.1288L46.7228 11.457C47.5645 11.3814 48.068 10.6532 47.8416 9.84024L45.8266 2.58028C45.601 1.7664 45.0235 1.66898 44.5427 2.36357L42.8113 4.86541C36.9088 0.903208 29.8294 -0.607637 22.8027 0.610829C22.095 0.733314 21.3972 0.883228 20.709 1.05774C20.7037 1.05868 20.6994 1.05927 20.6952 1.06022C20.6686 1.06672 20.6416 1.07535 20.6157 1.08256C14.5565 2.63857 9.26991 6.17255 5.49759 11.2148C5.46579 11.2525 5.43304 11.2894 5.40301 11.3304C5.27757 11.4994 5.15307 11.6722 5.03118 11.8451C4.83184 12.1283 4.63535 12.4187 4.44736 12.7091C4.42384 12.7441 4.40587 12.7797 4.38529 12.815C1.27233 17.6389 -0.229172 23.2157 0.0283301 28.8933C0.0289212 28.912 0.0278571 28.9308 0.0283301 28.9499C0.0532763 29.5045 0.0972574 30.0668 0.156963 30.6204C0.160155 30.6561 0.168076 30.6899 0.174106 30.7256C0.235821 31.2822 0.313261 31.8402 0.410327 32.398C1.39683 38.0892 4.08156 43.2106 8.10453 47.1955C8.11387 47.2048 8.12357 47.215 8.13303 47.2247C8.13634 47.2283 8.14 47.2302 8.14319 47.2336C9.22404 48.2997 10.3997 49.2857 11.6656 50.1773C14.9783 52.5116 18.6672 54.0546 22.6288 54.7655C23.8308 54.9815 24.9791 54.1814 25.1947 52.9799C25.4103 51.7777 24.6108 50.6285 23.4091 50.4132Z" fill="white"/>
<path d="M26.1431 9.83643C25.1544 9.83643 24.3535 10.638 24.3535 11.6253V29.4479L40.6537 37.8742C40.9161 38.0101 41.197 38.074 41.4734 38.074C42.1208 38.074 42.7461 37.7215 43.064 37.1063C43.5174 36.2284 43.1743 35.1498 42.2964 34.6963L27.9308 27.2695V11.6253C27.9306 10.638 27.1307 9.83643 26.1431 9.83643Z" fill="white"/>
<path d="M26.1431 9.83643C25.1544 9.83643 24.3535 10.638 24.3535 11.6253V29.4479L40.6537 37.8742C40.9161 38.0101 41.197 38.074 41.4734 38.074C42.1208 38.074 42.7461 37.7215 43.064 37.1063C43.5174 36.2284 43.1743 35.1498 42.2964 34.6963L27.9308 27.2695V11.6253C27.9306 10.638 27.1307 9.83643 26.1431 9.83643Z" fill="url(#paint7_linear_7_97)"/>
<path d="M26.1431 9.83643C25.1544 9.83643 24.3535 10.638 24.3535 11.6253V29.4479L40.6537 37.8742C40.9161 38.0101 41.197 38.074 41.4734 38.074C42.1208 38.074 42.7461 37.7215 43.064 37.1063C43.5174 36.2284 43.1743 35.1498 42.2964 34.6963L27.9308 27.2695V11.6253C27.9306 10.638 27.1307 9.83643 26.1431 9.83643Z" fill="white"/>
<defs>
<linearGradient id="paint0_linear_7_97" x1="32.8375" y1="50.0293" x2="32.8375" y2="54.7792" gradientUnits="userSpaceOnUse">
<stop stop-color="#FED57D"/>
<stop offset="1" stop-color="#E7B159"/>
</linearGradient>
<linearGradient id="paint1_linear_7_97" x1="51.2398" y1="16.1039" x2="51.2398" y2="21.9753" gradientUnits="userSpaceOnUse">
<stop stop-color="#FED57D"/>
<stop offset="1" stop-color="#E7B159"/>
</linearGradient>
<linearGradient id="paint2_linear_7_97" x1="40.8027" y1="46.5718" x2="40.8027" y2="51.8051" gradientUnits="userSpaceOnUse">
<stop stop-color="#FED57D"/>
<stop offset="1" stop-color="#E7B159"/>
</linearGradient>
<linearGradient id="paint3_linear_7_97" x1="52.7792" y1="24.5103" x2="52.7792" y2="30.4741" gradientUnits="userSpaceOnUse">
<stop stop-color="#FED57D"/>
<stop offset="1" stop-color="#E7B159"/>
</linearGradient>
<linearGradient id="paint4_linear_7_97" x1="47.2359" y1="40.6787" x2="47.2359" y2="46.3069" gradientUnits="userSpaceOnUse">
<stop stop-color="#FED57D"/>
<stop offset="1" stop-color="#E7B159"/>
</linearGradient>
<linearGradient id="paint5_linear_7_97" x1="51.382" y1="33.0274" x2="51.382" y2="38.9066" gradientUnits="userSpaceOnUse">
<stop stop-color="#FED57D"/>
<stop offset="1" stop-color="#E7B159"/>
</linearGradient>
<linearGradient id="paint6_linear_7_97" x1="23.9479" y1="0.199707" x2="23.9479" y2="54.8007" gradientUnits="userSpaceOnUse">
<stop stop-color="#FED57D"/>
<stop offset="1" stop-color="#E7B159"/>
</linearGradient>
<linearGradient id="paint7_linear_7_97" x1="33.8088" y1="9.83643" x2="33.8088" y2="38.074" gradientUnits="userSpaceOnUse">
<stop stop-color="#FED57D"/>
<stop offset="1" stop-color="#E7B159"/>
</linearGradient>
</defs>
</svg>
