<svg width="55" height="55" viewBox="0 0 55 55" fill="none" xmlns="http://www.w3.org/2000/svg">
<path d="M53.2813 20.6251C53.2826 20.8513 53.2392 21.0755 53.1537 21.2849C53.0682 21.4943 52.9421 21.6848 52.7828 21.8454L42.4703 32.1579C42.3097 32.3172 42.1193 32.4432 41.9099 32.5288C41.7005 32.6143 41.4762 32.6577 41.25 32.6564C41.0266 32.6591 40.8047 32.6182 40.5969 32.536C40.2803 32.406 40.0098 32.1844 39.8199 31.8996C39.6301 31.6148 39.5296 31.2799 39.5313 30.9376V25.7814H24.0625C23.6067 25.7814 23.1695 25.6003 22.8472 25.2779C22.5249 24.9556 22.3438 24.5184 22.3438 24.0626V17.1876C22.3438 16.7318 22.5249 16.2946 22.8472 15.9723C23.1695 15.6499 23.6067 15.4689 24.0625 15.4689H39.5313V10.3126C39.5327 9.9727 39.6349 9.64083 39.8249 9.35899C40.015 9.07714 40.2843 8.85797 40.5989 8.72919C40.9135 8.60041 41.2592 8.56781 41.5923 8.6355C41.9254 8.7032 42.231 8.86815 42.4703 9.1095L52.7828 19.422C53.1004 19.7421 53.2794 20.1742 53.2813 20.6251ZM30.9375 29.2189H15.4688V24.0626C15.4671 23.7233 15.365 23.392 15.1754 23.1107C14.9857 22.8293 14.717 22.6103 14.4032 22.4814C14.0902 22.3497 13.7452 22.3138 13.4118 22.378C13.0783 22.4422 12.7714 22.6038 12.5297 22.8423L2.21722 33.1548C2.05792 33.3154 1.93189 33.5059 1.84636 33.7153C1.76083 33.9247 1.71747 34.1489 1.71878 34.3751C1.71747 34.6013 1.76083 34.8255 1.84636 35.0349C1.93189 35.2444 2.05792 35.4348 2.21722 35.5954L12.5297 45.9079C12.6903 46.0672 12.8808 46.1932 13.0902 46.2788C13.2996 46.3643 13.5238 46.4077 13.75 46.4064C13.9755 46.4122 14.1992 46.3651 14.4032 46.2689C14.717 46.1399 14.9857 45.9209 15.1754 45.6396C15.365 45.3582 15.4671 45.0269 15.4688 44.6876V39.5314H30.9375C31.3934 39.5314 31.8305 39.3503 32.1529 39.0279C32.4752 38.7056 32.6563 38.2684 32.6563 37.8126V30.9376C32.6563 30.4818 32.4752 30.0446 32.1529 29.7223C31.8305 29.3999 31.3934 29.2189 30.9375 29.2189Z" fill="white"/>
</svg>
