<svg width="55" height="55" viewBox="0 0 55 55" fill="none" xmlns="http://www.w3.org/2000/svg">
<path d="M53.2813 20.625C53.2826 20.8512 53.2392 21.0754 53.1537 21.2848C53.0682 21.4942 52.9421 21.6847 52.7828 21.8453L42.4703 32.1578C42.3097 32.3171 42.1193 32.4431 41.9099 32.5287C41.7005 32.6142 41.4762 32.6576 41.25 32.6563C41.0266 32.659 40.8047 32.6181 40.5969 32.5359C40.2803 32.4059 40.0098 32.1843 39.8199 31.8995C39.6301 31.6147 39.5296 31.2798 39.5313 30.9375V25.7813H24.0625C23.6067 25.7813 23.1695 25.6002 22.8472 25.2778C22.5249 24.9555 22.3438 24.5183 22.3438 24.0625V17.1875C22.3438 16.7317 22.5249 16.2945 22.8472 15.9722C23.1695 15.6498 23.6067 15.4688 24.0625 15.4688H39.5313V10.3125C39.5327 9.97258 39.6349 9.64071 39.8249 9.35887C40.015 9.07702 40.2843 8.85785 40.5989 8.72907C40.9135 8.60029 41.2592 8.56769 41.5923 8.63538C41.9254 8.70308 42.231 8.86803 42.4703 9.10938L52.7828 19.4219C53.1004 19.742 53.2794 20.1741 53.2813 20.625ZM30.9375 29.2188H15.4688V24.0625C15.4671 23.7232 15.365 23.3919 15.1754 23.1106C14.9857 22.8292 14.717 22.6102 14.4032 22.4813C14.0902 22.3496 13.7452 22.3137 13.4118 22.3779C13.0783 22.4421 12.7714 22.6037 12.5297 22.8422L2.21722 33.1547C2.05792 33.3153 1.93189 33.5058 1.84636 33.7152C1.76083 33.9246 1.71747 34.1488 1.71878 34.375C1.71747 34.6012 1.76083 34.8254 1.84636 35.0348C1.93189 35.2443 2.05792 35.4347 2.21722 35.5953L12.5297 45.9078C12.6903 46.0671 12.8808 46.1931 13.0902 46.2787C13.2996 46.3642 13.5238 46.4076 13.75 46.4063C13.9755 46.4121 14.1992 46.365 14.4032 46.2688C14.717 46.1398 14.9857 45.9208 15.1754 45.6395C15.365 45.3581 15.4671 45.0268 15.4688 44.6875V39.5313H30.9375C31.3934 39.5313 31.8305 39.3502 32.1529 39.0278C32.4752 38.7055 32.6563 38.2683 32.6563 37.8125V30.9375C32.6563 30.4817 32.4752 30.0445 32.1529 29.7222C31.8305 29.3998 31.3934 29.2188 30.9375 29.2188Z" fill="white"/>
</svg>
